<?xml version="1.0" encoding="utf-8"?>
<!-- Generator: Adobe Illustrator 27.5.0, SVG Export Plug-In . SVG Version: 6.00 Build 0)  -->
<svg version="1.1" xmlns="http://www.w3.org/2000/svg" xmlns:xlink="http://www.w3.org/1999/xlink" x="0px" y="0px"
	 viewBox="0 0 2000 2000" style="enable-background:new 0 0 2000 2000;" xml:space="preserve">
<g id="BACKGROUND">
	<rect style="fill:#FFF2D2;" width="2000" height="2000"/>
</g>
<g id="OBJECTS">
	<g>
		<g>
			<path style="fill:#013D55;" d="M1550.264,1248.316h-3v-2.926h3V1248.316z M1550.264,1222.891h-3v-22.5h3V1222.891z
				 M1550.264,1177.891h-3v-22.5h3V1177.891z M1550.264,1132.891h-3v-22.5h3V1132.891z M1550.264,1087.891h-3v-22.5h3V1087.891z
				 M1550.264,1042.891h-3v-22.5h3V1042.891z M1550.264,997.891h-3v-22.5h3V997.891z M1550.264,952.891h-3v-22.5h3V952.891z
				 M1550.264,907.891h-3v-22.5h3V907.891z M1550.264,862.891h-3v-22.5h3V862.891z M1550.264,817.891h-3v-22.5h3V817.891z
				 M1550.264,772.891h-3v-22.5h3V772.891z M1550.264,727.891h-3v-22.5h3V727.891z M1550.264,682.891h-3v-22.5h3V682.891z
				 M1550.264,637.891h-3v-22.5h3V637.891z M1529.876,613.278h-22.5v-3h22.5V613.278z M1484.876,613.278h-22.5v-3h22.5V613.278z
				 M1439.876,613.278h-22.5v-3h22.5V613.278z M1394.876,613.278h-22.5v-3h22.5V613.278z M1349.876,613.278h-22.5v-3h22.5V613.278z
				 M1304.876,613.278h-22.5v-3h22.5V613.278z M1259.876,613.278h-22.5v-3h22.5V613.278z M1214.876,613.278h-22.5v-3h22.5V613.278z
				 M1169.876,613.278h-22.5v-3h22.5V613.278z M1124.876,613.278h-22.5v-3h22.5V613.278z M1079.876,613.278h-22.5v-3h22.5V613.278z"
				/>
			<g>
				<path style="fill:#BFA564;" d="M1607.963,697.669c-62.359,0-113.092-50.733-113.092-113.092s50.733-113.092,113.092-113.092
					c62.359,0,113.092,50.733,113.092,113.092S1670.322,697.669,1607.963,697.669z M1607.963,473.849
					c-61.055,0-110.728,49.672-110.728,110.728c0,61.055,49.672,110.728,110.728,110.728s110.728-49.672,110.728-110.728
					C1718.691,523.521,1669.019,473.849,1607.963,473.849z"/>
				<g>
					<circle style="fill:#FF864D;" cx="1556.696" cy="607.314" r="123.622"/>
					<polygon style="fill:#101F48;" points="1593.784,643.58 1555.348,607.484 1604.242,530.381 1606.009,531.503 1558.043,607.144 
						1595.217,642.054 					"/>
				</g>
			</g>
			<polygon style="fill:#C2AFEA;" points="1550,911.579 1590.659,870.921 1509.341,870.921 			"/>
		</g>
		<g>
			<path style="fill:#013D55;" d="M927.375,1447.316h-16.464v-3h16.464V1447.316z M888.411,1447.316h-22.5v-3h22.5V1447.316z
				 M843.411,1447.316h-22.5v-3h22.5V1447.316z M798.411,1447.316h-22.5v-3h22.5V1447.316z M753.411,1447.316h-22.5v-3h22.5
				V1447.316z M708.411,1447.316h-22.5v-3h22.5V1447.316z M663.411,1447.316h-22.5v-3h22.5V1447.316z M618.411,1447.316h-22.5v-3
				h22.5V1447.316z M573.411,1447.316h-22.5v-3h22.5V1447.316z M528.411,1447.316h-22.5v-3h22.5V1447.316z M483.411,1447.316h-22.5
				v-3h22.5V1447.316z M438.411,1447.316h-22.5v-3h22.5V1447.316z M393.411,1447.316h-19v-6.5h3v3.5h16V1447.316z M377.411,1418.316
				h-3v-22.5h3V1418.316z M377.411,1373.316h-3v-22.5h3V1373.316z M377.411,1328.316h-3v-22.5h3V1328.316z M377.411,1283.316h-3
				v-22.5h3V1283.316z M377.411,1238.316h-3v-22.5h3V1238.316z M377.411,1193.316h-3v-22.5h3V1193.316z M377.411,1148.316h-3v-22.5
				h3V1148.316z M377.411,1103.316h-3v-22.5h3V1103.316z M377.411,1058.316h-3v-22.5h3V1058.316z M377.411,1013.316h-3v-22.5h3
				V1013.316z M377.411,968.316h-3v-22.5h3V968.316z M377.411,923.316h-3v-22.5h3V923.316z M377.411,878.316h-3v-22.5h3V878.316z"/>
			<g>
				<path style="fill:#FFFFFF;" d="M458.535,1504.767H291.312c-12.845,0-23.258-10.413-23.258-23.258v-123.087h213.74v123.087
					C481.794,1494.354,471.381,1504.767,458.535,1504.767z"/>
				<polygon style="fill:#FF9498;" points="268.053,1358.422 374.923,1431.594 481.794,1358.422 				"/>
			</g>
			<polygon style="fill:#C2AFEA;" points="375,1140.921 415.659,1181.579 334.341,1181.579 			"/>
		</g>
		<g>
			<path style="fill:#BFA564;" d="M1281.46,425.507c-10.477,0-19-8.523-19-19c0-10.477,8.523-19,19-19s19,8.523,19,19
				C1300.46,416.983,1291.937,425.507,1281.46,425.507z M1281.46,390.507c-8.822,0-16,7.178-16,16c0,8.822,7.178,16,16,16
				s16-7.178,16-16C1297.46,397.685,1290.282,390.507,1281.46,390.507z"/>
			<path style="fill:#BFA564;" d="M572.174,1684c-10.477,0-19-8.523-19-19s8.523-19,19-19c10.477,0,19,8.523,19,19
				S582.65,1684,572.174,1684z M572.174,1649c-8.822,0-16,7.178-16,16s7.178,16,16,16c8.822,0,16-7.178,16-16
				S580.996,1649,572.174,1649z"/>
			<path style="fill:#BFA564;" d="M1672.174,974.593l-23.695-23.051l23.695-23.051l23.695,23.051L1672.174,974.593z
				 M1652.781,951.542l19.393,18.866l19.393-18.866l-19.393-18.866L1652.781,951.542z"/>
			<g>
				<path style="fill:#BFA564;" d="M725,1020.07H587.226c-1.249,0-2.263-1.013-2.263-2.263s1.013-2.263,2.263-2.263H725
					c1.25,0,2.263,1.013,2.263,2.263S726.25,1020.07,725,1020.07z"/>
				<path style="fill:#BFA564;" d="M663.748,1049.322c-0.007,0-0.013,0-0.02,0l-76.522-0.656c-1.25-0.011-2.253-1.032-2.243-2.282
					c0.01-1.25,1.024-2.276,2.282-2.243l76.521,0.656c1.25,0.011,2.253,1.032,2.243,2.282
					C666,1048.322,664.988,1049.322,663.748,1049.322z"/>
				<path style="fill:#BFA564;" d="M725,1077.263H587.226c-1.249,0-2.263-1.013-2.263-2.263s1.013-2.263,2.263-2.263H725
					c1.25,0,2.263,1.013,2.263,2.263S726.25,1077.263,725,1077.263z"/>
				<path style="fill:#BFA564;" d="M725,1048.666h-34.506c-1.249,0-2.263-1.013-2.263-2.263s1.013-2.263,2.263-2.263H725
					c1.25,0,2.263,1.013,2.263,2.263S726.25,1048.666,725,1048.666z"/>
			</g>
			<g>
				<path style="fill:#BFA564;" d="M1385.499,798.269h-121.867c-1.175,0-2.128-0.953-2.128-2.128c0-1.175,0.953-2.128,2.128-2.128
					h121.867c1.175,0,2.128,0.953,2.128,2.128C1387.627,797.316,1386.674,798.269,1385.499,798.269z"/>
				<path style="fill:#BFA564;" d="M1331.318,827.521c-0.007,0-0.014,0-0.021,0l-67.687-0.656c-1.175-0.012-2.119-0.973-2.107-2.148
					c0.012-1.168,0.962-2.107,2.128-2.107c0.007,0,0.014,0,0.021,0l67.687,0.656c1.175,0.012,2.119,0.974,2.107,2.148
					C1333.435,826.581,1332.484,827.521,1331.318,827.521z"/>
				<path style="fill:#BFA564;" d="M1385.499,826.865h-30.522c-1.175,0-2.128-0.953-2.128-2.128s0.953-2.128,2.128-2.128h30.522
					c1.175,0,2.128,0.953,2.128,2.128S1386.674,826.865,1385.499,826.865z"/>
			</g>
		</g>
		<g>
			<g>
				<g>
					<path style="fill:#FFF2D2;" d="M180.089,878.652c0,28.053,22.742,50.795,50.795,50.795h864.063
						c28.053,0,50.795-22.742,50.795-50.795V477.096H180.089V878.652z"/>
					<path style="fill:#013D55;" d="M1094.947,930.878H230.884c-28.797,0-52.226-23.429-52.226-52.227V475.665h968.517v402.987
						C1147.175,907.45,1123.745,930.878,1094.947,930.878z M181.52,478.527v400.125c0,27.22,22.145,49.364,49.364,49.364h864.063
						c27.22,0,49.365-22.145,49.365-49.364V478.527H181.52z"/>
				</g>
				<g>
					<path style="fill:#FFFFFF;" d="M1094.948,354.923H230.884c-28.053,0-50.795,22.742-50.795,50.795v71.377h965.654v-71.377
						C1145.743,377.665,1123.001,354.923,1094.948,354.923z"/>
					<path style="fill:#013D55;" d="M1146.993,478.346H178.839v-72.627c0-28.698,23.347-52.045,52.045-52.045h864.063
						c28.698,0,52.046,23.347,52.046,52.045V478.346z M181.339,475.846h963.154v-70.127c0-27.319-22.227-49.545-49.546-49.545
						H230.884c-27.319,0-49.545,22.226-49.545,49.545V475.846z"/>
				</g>
				<path style="fill:#013D55;" d="M261.628,440.783c-13.66,0-24.773-11.113-24.773-24.773c0-13.66,11.113-24.774,24.773-24.774
					c13.66,0,24.774,11.114,24.774,24.774C286.402,429.67,275.289,440.783,261.628,440.783z M261.628,394.986
					c-11.592,0-21.023,9.431-21.023,21.024c0,11.592,9.431,21.023,21.023,21.023c11.593,0,21.024-9.431,21.024-21.023
					C282.652,404.417,273.221,394.986,261.628,394.986z"/>
			</g>
			<g>
				<g>
					<path style="fill:#013D55;" d="M803.724,446.958l-114.751-10.19l-135.589-11.621l-2.605-35.321l-21.095,33.289l-30.799-2.634
						c-14.254-42.105-1.345-50.263,19.693-64.517c21.038-14.254,2.719-41.389,4.751-63.114
						c2.032-21.725,46.169-28.538,57.018-44.824c38.012-100.468,114.064-49.547,114.064-49.547
						c86.9-16.974,91.652,70.585,115.409,100.468c23.757,29.883-5.439,46.17-1.345,69.24
						C844.454,424.546,803.724,446.958,803.724,446.958z"/>
					<rect x="602.015" y="342.598" style="fill:#FFBA9A;" width="109.999" height="162.208"/>
					<path style="fill:#013D55;" d="M712.014,398.556v64.574c-42.076-3.12-80.288-44.824-94.457-81.405L712.014,398.556z"/>
					<path style="fill:#FFBA9A;" d="M752.459,341.624c1.03,16.516,0.286,30.684-2.147,42.563
						c-6.011,29.196-22.326,44.424-48.173,45.712c-42.134,2.09-108.74-48.545-108.74-107.824
						c0-59.279,61.397-104.847,103.359-100.182c77.283,8.587,52.123,82.063,54.814,108.769
						C751.944,334.411,752.259,338.075,752.459,341.624z"/>
					<path style="fill:#013D55;" d="M597.292,332.579c33.319-6.544,60.097-20.877,75.852-68.696
						c49.375,5.009,80.425,17.3,89.448,42.935l-2.862-77.999l-105.906-21.467l-72.99,58.678l0.716,70.127L597.292,332.579z"/>
					<g>
						
							<ellipse transform="matrix(0.7071 -0.7071 0.7071 0.7071 -34.3254 584.3176)" style="fill:#013D55;" cx="688.171" cy="333.593" rx="7.693" ry="7.693"/>
						<path style="fill:#013D55;" d="M735.877,331.144c2.768,2.768,2.768,7.255,0,10.023c-2.768,2.768-7.255,2.768-10.023,0
							c-2.768-2.768-2.768-7.255,0-10.023C728.622,328.376,733.109,328.376,735.877,331.144z"/>
						<path style="fill:#013D55;" d="M713.137,344.454c2.333,1.823,4.901,3.589,7.209,5.828c1.167,1.116,2.279,2.34,3.222,3.86
							c0.477,0.755,0.891,1.598,1.173,2.559c0.259,0.964,0.444,2.046,0.253,3.168c-0.048,0.555-0.249,1.096-0.438,1.613
							c-0.248,0.48-0.48,0.999-0.808,1.39l-0.472,0.618l-0.518,0.522c-0.343,0.365-0.711,0.644-1.08,0.921
							c-0.364,0.301-0.753,0.515-1.134,0.734c-0.382,0.228-0.765,0.44-1.153,0.607c-0.771,0.382-1.544,0.683-2.329,0.937
							c-3.119,1.038-6.264,1.446-9.414,1.495c-0.47,0.007-0.858-0.368-0.865-0.838c-0.006-0.363,0.217-0.677,0.535-0.804
							l0.017-0.006c2.866-1.139,5.737-2.108,8.327-3.347c2.55-1.184,4.962-2.9,5.108-4.483c0.103-0.396,0.026-0.872-0.085-1.384
							c-0.141-0.516-0.38-1.073-0.67-1.646c-0.585-1.148-1.47-2.286-2.366-3.435c-1.824-2.307-4.015-4.467-5.786-7.216
							c-0.253-0.393-0.14-0.916,0.253-1.17c0.31-0.2,0.703-0.171,0.978,0.044L713.137,344.454z"/>
						<path style="fill:#FFFFFF;" d="M686.74,370.982c9.541,22.899,24.33,24.33,31.963,10.018L686.74,370.982z"/>
						<path style="fill:#013D55;" d="M696.289,305.796c0.646,3.811-9.572,6.531-17.106,8.245c-7.533,1.714-14.11,1.039-14.689-1.507
							c-0.579-2.546,5.058-5.999,12.592-7.713C684.62,303.107,695.853,303.221,696.289,305.796z"/>
						<path style="fill:#013D55;" d="M716.936,307.468c-0.793,3.774,6.91,5.94,12.611,7.251c5.701,1.311,10.844,0.324,11.488-2.205
							c0.644-2.528-3.456-5.641-9.157-6.951C726.177,304.252,717.472,304.918,716.936,307.468z"/>
						<circle style="opacity:0.4;fill:#FF9498;" cx="656.506" cy="360.666" r="22.004"/>
						<path style="opacity:0.4;fill:#FF9498;" d="M750.312,384.187c-8.959-2.776-15.457-11.134-15.457-21.009
							c0-10.648,7.557-19.521,17.603-21.553C753.49,358.14,752.745,372.309,750.312,384.187z"/>
					</g>
					
						<ellipse transform="matrix(0.6012 -0.7991 0.7991 0.6012 -35.126 612.7292)" style="fill:#FFBA9A;" cx="596.338" cy="341.558" rx="25.795" ry="28.623"/>
					<path style="fill:#013D55;" d="M606.466,349c-2.373-11.188-13.945-17.717-24.768-14.011c-1.733,0.593-0.989,3.359,0.761,2.76
						c9.42-3.225,19.183,2.279,21.247,12.012C604.088,351.562,606.847,350.8,606.466,349L606.466,349z"/>
				</g>
				<g>
					<path style="fill:#00B3F3;" d="M766.408,506.228c180.804,59.632,137.869,308.655,159.337,423.149H431.992l17.174-200.363
						l12.88-161.722l90.64-72.512L766.408,506.228z"/>
					<path style="fill:#00B3F3;" d="M552.687,494.778l20.255-23.068c8.727-9.94,21.803-14.796,34.94-13.251
						c34.71,4.083,69.028,5.253,103.019,3.973c12.787-0.481,25.044,5.099,32.959,15.153l22.548,28.642
						C688.517,541.638,617.188,538.342,552.687,494.778z"/>
					<path style="fill:#007BA7;" d="M431.992,929.376c54.087-31.617,95.026-79.366,115.925-151.704l-102.329-10.734L431.992,929.376
						z"/>
					<g>
						<path style="fill:#013D55;" d="M587.203,509.97c6.146-10.128,12.292-20.256,18.438-30.384
							c0.958-1.579-1.516-3.019-2.472-1.445c-6.146,10.128-12.292,20.256-18.438,30.384
							C583.774,510.105,586.248,511.545,587.203,509.97L587.203,509.97z"/>
						<path style="fill:#013D55;" d="M631.554,512.334c2.757-9.631,5.513-19.263,8.27-28.894c0.508-1.774-2.253-2.532-2.76-0.761
							c-2.757,9.632-5.514,19.263-8.27,28.894C628.286,513.347,631.047,514.104,631.554,512.334L631.554,512.334z"/>
						<path style="fill:#013D55;" d="M679.307,509.059c-2.202-9.082-4.403-18.165-6.605-27.247c-0.434-1.789-3.195-1.032-2.76,0.761
							c2.202,9.082,4.403,18.165,6.605,27.247C676.98,511.609,679.741,510.851,679.307,509.059L679.307,509.059z"/>
						<path style="fill:#013D55;" d="M724.965,503.153c-3.825-7.72-7.651-15.44-11.476-23.16c-0.818-1.651-3.287-0.202-2.471,1.445
							c3.825,7.72,7.651,15.44,11.476,23.16C723.312,506.249,725.781,504.8,724.965,503.153L724.965,503.153z"/>
					</g>
					<g>
						<path style="fill:#013D55;" d="M830.454,659.698c6.358,33.892,5.689,68.508,5.086,102.832
							c-0.618,35.165-1.237,70.33-1.855,105.495c-0.347,19.739-0.694,39.478-1.041,59.217c-0.032,1.843,2.83,1.843,2.862,0
							c0.621-35.331,1.242-70.662,1.864-105.993c0.615-34.958,2.017-70.014,1.252-104.975c-0.421-19.215-1.861-38.428-5.408-57.337
							C832.875,657.129,830.116,657.895,830.454,659.698L830.454,659.698z"/>
						<path style="fill:#013D55;" d="M832.765,658.884c-0.597-18.158-3.298-36.186-8.06-53.719c-0.482-1.776-3.244-1.022-2.76,0.761
							c4.698,17.295,7.369,35.046,7.957,52.958C829.963,660.721,832.826,660.73,832.765,658.884L832.765,658.884z"/>
						<path style="fill:#013D55;" d="M834.279,658.055c5.388-5.86,9.088-12.951,10.734-20.746c0.38-1.797-2.379-2.565-2.76-0.761
							c-1.546,7.318-4.932,13.973-9.998,19.483C831.009,657.386,833.028,659.415,834.279,658.055L834.279,658.055z"/>
					</g>
					<g>
						<g>
							<path style="fill:#FFBA9A;" d="M552.21,669.381c11.897-9.575,23.947-18.511,37.21-22.422c0,0,30.532-60.586,40.55-58.201
								c10.018,2.385-3.816,52.476-5.725,54.861c0,0,45.797-10.972,52.476-4.294c6.679,6.679,0.477,20.036,0.477,20.036
								s19.082-5.248,11.926,24.33c0,0,7.633,19.559-0.477,26.238c-1.908,23.853-51.999,34.348-111.631,35.779L552.21,669.381z"/>
							<path style="fill:#BF643A;" d="M653.821,665.684c-1.021,0-1.925-0.73-2.111-1.769c-0.208-1.167,0.569-2.282,1.736-2.491
								l23.375-4.174c1.168-0.21,2.282,0.569,2.491,1.736c0.208,1.167-0.569,2.282-1.736,2.491l-23.375,4.174
								C654.073,665.673,653.946,665.684,653.821,665.684z"/>
							<path style="fill:#BF643A;" d="M658.471,689.656c-1.067,0-1.992-0.795-2.127-1.882c-0.146-1.176,0.688-2.249,1.865-2.396
								l30.651-3.816c1.171-0.148,2.249,0.688,2.395,1.865c0.147,1.176-0.688,2.249-1.865,2.396l-30.651,3.816
								C658.649,689.65,658.56,689.656,658.471,689.656z"/>
							<path style="fill:#BF643A;" d="M660.619,714.344c-1.107,0-2.046-0.851-2.137-1.974c-0.096-1.182,0.785-2.217,1.967-2.313
								l28.027-2.266c1.174-0.101,2.217,0.785,2.313,1.967c0.096,1.182-0.785,2.217-1.967,2.313l-28.027,2.266
								C660.735,714.341,660.677,714.344,660.619,714.344z"/>
						</g>
						<path style="fill:#00B3F3;" d="M552.687,494.778c0,0-136.438,25.284-172.217,85.393s-94.05,204.193-68.696,253.317
							c22.899,44.366,108.769,84.439,236.143-55.815c0,0,47.229-8.587,47.229-27.192c0-18.605-17.174-101.613-37.21-100.182
							c-20.036,1.431-44.366,25.761-44.366,25.761l-52.953,10.018l8.587-65.834L552.687,494.778z"/>
						<g>
							<path style="fill:#013D55;" d="M547.332,779.766c14.421-10.073,41.029-5.551,47.918-25.481
								c3.406-9.853-0.546-21.182-2.925-30.82c-2.835-11.486-5.9-22.915-9.192-34.278c-4.568-15.767-9.307-41.785-30.997-40.053
								c-9.891,0.79-18.05,6.557-25.272,12.908c-4.088,3.595-8.007,7.408-12.389,10.653c-4.612,3.415-10.48,5.579-15.602,8.165
								c-23.93,12.081-47.582,24.707-70.943,37.854c-1.605,0.904-0.164,3.377,1.445,2.471
								c19.422-10.931,39.045-21.504,58.864-31.698c5.023-2.584,10.058-5.144,15.106-7.68c4.715-2.369,9.702-4.396,13.889-7.636
								c7.687-5.95,14.178-13.65,22.804-18.325c8.422-4.564,19.365-6.088,26.742,1.225c6.314,6.259,8.5,15.793,10.976,24.019
								c3.27,10.863,6.332,21.788,9.183,32.768c1.385,5.333,2.72,10.68,4.005,16.038c1.185,4.941,2.484,9.942,2.662,15.044
								c0.923,26.407-32.31,21.592-47.719,32.356C544.388,778.342,545.817,780.825,547.332,779.766L547.332,779.766z"/>
							<path style="fill:#013D55;" d="M532.244,688.385c4.829-8.075,13.417-13.356,22.82-13.94c1.83-0.114,1.843-2.977,0-2.862
								c-10.424,0.648-19.925,6.384-25.292,15.358C528.825,688.525,531.298,689.966,532.244,688.385L532.244,688.385z"/>
							<path style="fill:#013D55;" d="M541.848,717.211c6.291-6.92,15.361-10.468,24.677-9.696c1.836,0.152,1.826-2.711,0-2.862
								c-10.004-0.829-19.951,3.11-26.701,10.534C538.587,716.547,540.606,718.577,541.848,717.211L541.848,717.211z"/>
							<path style="fill:#013D55;" d="M544.696,741.684c10.399,1.409,20.849,0.698,30.937-2.219c1.766-0.511,1.015-3.274-0.761-2.76
								c-9.563,2.766-19.542,3.558-29.415,2.22C543.656,738.68,542.877,741.438,544.696,741.684L544.696,741.684z"/>
							<path style="fill:#013D55;" d="M454.84,706.972c5.72-21.714,11.756-43.348,17.962-64.927c0.51-1.773-2.251-2.531-2.76-0.761
								c-6.206,21.58-12.243,43.213-17.962,64.927C451.61,707.994,454.37,708.754,454.84,706.972L454.84,706.972z"/>
						</g>
					</g>
				</g>
			</g>
		</g>
		<g>
			<g>
				<g>
					<path style="fill:#FFF2D2;" d="M692.643,1744.923c0,30.734,23.589,55.649,52.688,55.649h896.262
						c29.099,0,52.688-24.915,52.688-55.649v-439.928H692.643V1744.923z"/>
					<path style="fill:#013D55;" d="M1641.593,1802.057H745.331c-29.871,0-54.172-25.63-54.172-57.133v-441.413h1004.606v441.413
						C1695.765,1776.427,1671.463,1802.057,1641.593,1802.057z M694.127,1306.479v438.444c0,29.866,22.97,54.164,51.204,54.164
						h896.262c28.233,0,51.203-24.298,51.203-54.164v-438.444H694.127z"/>
				</g>
				<g>
					<path style="fill:#FFFFFF;" d="M1641.592,1171.148H745.331c-29.099,0-52.688,24.915-52.688,55.649v78.198H1694.28v-78.198
						C1694.28,1196.063,1670.691,1171.148,1641.592,1171.148z"/>
					<path style="fill:#013D55;" d="M1695.53,1306.245H691.393v-79.448c0-31.374,24.196-56.899,53.938-56.899h896.262
						c29.741,0,53.938,25.525,53.938,56.899V1306.245z M693.893,1303.745h999.138v-76.948c0-29.996-23.075-54.399-51.438-54.399
						H745.331c-28.363,0-51.438,24.403-51.438,54.399V1303.745z"/>
				</g>
				<path style="fill:#013D55;" d="M767.571,1263.688c-14.188,0-25.73-11.492-25.73-25.617s11.542-25.617,25.73-25.617
					s25.731,11.492,25.731,25.617S781.759,1263.688,767.571,1263.688z M767.571,1216.204c-12.12,0-21.98,9.81-21.98,21.867
					s9.86,21.867,21.98,21.867s21.981-9.81,21.981-21.867S779.691,1216.204,767.571,1216.204z"/>
			</g>
			<g>
				<g>
					<path style="fill:#7252B8;" d="M1010.493,1418.45l-6.928,377.557l143.925,4.525h233.138l23.57-290.332
						c8.182-100.786-55.31-193.541-152.227-222.385l0,0l-74.72-3.959L1010.493,1418.45z"/>
					<g>
						<g>
							
								<rect x="1612.705" y="1192.064" transform="matrix(0.8944 -0.4473 0.4473 0.8944 -422.3128 916.4405)" style="fill:#FFFFFF;" width="233.066" height="320.652"/>
							<path style="fill:#36295B;" d="M1696.073,1549.902l-144.771-289.435l211.102-105.59l144.771,289.434L1696.073,1549.902z
								 M1555.286,1261.796l142.115,284.122l205.789-102.935l-142.115-284.121L1555.286,1261.796z"/>
						</g>
						<g>
							
								<rect x="1606.04" y="1268.637" transform="matrix(0.8944 -0.4473 0.4473 0.8944 -406.5161 875.2073)" style="fill:#7252B8;" width="87.585" height="59.38"/>
							<g>
								
									<rect x="1693.665" y="1232.93" transform="matrix(0.8944 -0.4472 0.4472 0.8944 -369.2949 904.5773)" style="fill:#36295B;" width="74.968" height="2.97"/>
								
									<rect x="1702.963" y="1251.518" transform="matrix(0.8944 -0.4472 0.4472 0.8944 -376.6159 910.6342)" style="fill:#36295B;" width="74.966" height="2.97"/>
								
									<rect x="1712.26" y="1270.105" transform="matrix(0.8944 -0.4472 0.4472 0.8944 -383.9469 916.7545)" style="fill:#36295B;" width="74.968" height="2.97"/>
							</g>
							
								<rect x="1628.738" y="1328.034" transform="matrix(0.8944 -0.4472 0.4472 0.8944 -413.1469 908.9199)" style="fill:#36295B;" width="179.624" height="2.97"/>
							
								<rect x="1639.031" y="1348.613" transform="matrix(0.8944 -0.4472 0.4472 0.8944 -421.2635 915.6956)" style="fill:#36295B;" width="179.624" height="2.97"/>
							
								<rect x="1649.324" y="1369.192" transform="matrix(0.8944 -0.4472 0.4472 0.8944 -429.3798 922.4716)" style="fill:#36295B;" width="179.625" height="2.97"/>
							<g>
								<g>
									<path style="fill:#C2AFEA;" d="M1732.282,1445.216l2.335-37.243c-6.369-0.406-12.923,0.78-19.043,3.841
										c-18.448,9.227-25.922,31.662-16.695,50.109c9.227,18.447,31.662,25.922,50.109,16.695
										c18.062-9.034,25.562-30.721,17.208-48.939L1732.282,1445.216z"/>
									<path style="fill:#7252B8;" d="M1766.197,1429.679c-0.178-0.389-0.32-0.785-0.513-1.17
										c-6.166-12.328-18.235-19.718-31.067-20.536l-2.335,37.243L1766.197,1429.679z"/>
								</g>
								<g>
									
										<rect x="1794.169" y="1379.386" transform="matrix(0.8944 -0.4473 0.4473 0.8944 -429.2219 957.5007)" style="fill:#7252B8;" width="37.112" height="16.329"/>
									
										<rect x="1808.115" y="1407.267" transform="matrix(0.8944 -0.4473 0.4473 0.8944 -440.2218 966.6875)" style="fill:#C2AFEA;" width="37.112" height="16.329"/>
								</g>
							</g>
						</g>
					</g>
					<g>
						<path style="fill:#7252B8;" d="M939.238,1683.681c67.522-138.544,146.142-271.922,236.53-399.825l-103.445,28.817
							c-67.238,18.73-123.305,65.378-153.623,128.247c-48.372,100.307-104.864,240.995-97.727,289.77
							c7.682,52.497,47.439,68.533,136.322,67.191c4.348-35.985,15.397-65.515,34.667-87.126L939.238,1683.681z"/>
						<path style="fill:#FFBA9A;" d="M1062.946,1722.277l-50.473-0.99l-20.511-10.533c-19.27,21.611-30.32,51.141-34.667,87.126
							c14.167-0.214,29.537-0.853,46.271-1.873c46.147,7.732,94.458,8.093,143.925,4.525c4.789-0.346,6.665-6.392,2.894-9.364
							L1062.946,1722.277z"/>
					</g>
					<g>
						<path style="fill:#FFBA9A;" d="M1651.204,1509.068c1.216-8.284,2.336-14.95,3.562-19.362
							c9.897-35.628-23.752-77.194-23.752-77.194s7.917-13.855,3.959-50.473c-3.959-36.618-17.814,0-17.814,0l-36.856,91.082
							C1601.979,1480.88,1625.514,1499.993,1651.204,1509.068z"/>
						<path style="fill:#7252B8;" d="M1580.302,1453.121l-49.245,121.696l-27.216-48.989
							c-69.771-139.543-103.915-209.314-251.87-238.015l101.935,202.881c0,0,82.142,218.716,185.067,217.727
							c90.177-0.867,103.625-140.752,112.229-199.354C1625.514,1499.993,1601.979,1480.88,1580.302,1453.121z"/>
					</g>
					<g>
						<path style="fill:#013D55;" d="M1151.839,1367.26c14.133,12.099,31.785,19.639,50.3,21.502
							c18.191,1.831,36.667-2.254,52.589-11.182c8.911-4.997,16.94-11.505,23.678-19.18c1.256-1.431-0.836-3.539-2.099-2.099
							c-11.512,13.114-26.812,22.602-43.683,27.082c-17.186,4.563-35.454,3.505-52.118-2.631c-9.696-3.57-18.721-8.872-26.567-15.59
							C1152.494,1363.924,1150.385,1366.015,1151.839,1367.26L1151.839,1367.26z"/>
						<path style="fill:#013D55;" d="M1399.927,1521.375c-0.042,22.141-2.927,44.167-2.969,66.308c-0.004,1.911,2.965,1.913,2.969,0
							c0.042-22.141,2.927-44.167,2.969-66.308C1402.9,1519.465,1399.93,1519.462,1399.927,1521.375L1399.927,1521.375z"/>
						<path style="fill:#013D55;" d="M1010.988,1484.263c-0.034,26.953-2.795,53.818-4.948,80.658c-0.153,1.905,2.817,1.895,2.969,0
							c2.154-26.839,4.914-53.705,4.948-80.658C1013.96,1482.353,1010.991,1482.349,1010.988,1484.263L1010.988,1484.263z"/>
						<path style="fill:#013D55;" d="M1011.73,1545.127c0.062-9.35,1.929-20.638,8.265-27.947c6.229-7.187,17.743-5.89,24.432,0.028
							c3.794,3.357,5.018,7.807,7.123,12.218c1.746,3.66,4.629,6.934,8.939,7.217c9.691,0.635,13.696-11.161,16.472-18.259
							c1.554-3.974,3.706-8.927,7.889-10.748c5.053-2.199,9.594,1.417,12.361,5.389c4.943,7.095,5.937,17.494,13.921,22.265
							c8.644,5.166,16.928-1.983,22.11-8.519c3.295-4.157,6.2-8.561,10.769-11.472c4.455-2.838,10.228-3.403,13.447,1.514
							c4.476,6.837,2.186,16.255,8.006,22.587c5.939,6.461,16.346,5.039,23.253,1.083c9.372-5.368,14.684-15.895,24.369-20.777
							c4.205-2.12,9.506-3.317,14.086-1.726c5.388,1.872,7.385,7.103,8.24,12.3c1.293,7.854,1.318,19.434,10.47,22.677
							c4.279,1.516,8.678-0.231,11.886-3.158c4.062-3.707,5.763-8.982,8.234-13.731c5.259-10.105,17.447-15.126,27.84-9.366
							c4.609,2.554,7.94,6.665,9.608,11.643c1.455,4.341,2.099,9.111,4.571,13.05c5.183,8.26,15.772,6.859,22.452,1.277
							c8.351-6.977,10.794-19.587,20.997-24.59c5.254-2.576,10.649-1.246,14.613,2.905c3.71,3.886,5.541,8.986,7.332,13.939
							c3.074,8.5,7.253,17.882,17.342,19.174c3.874,0.496,7.754-0.584,10.29-3.665c1.205-1.464-0.884-3.576-2.099-2.099
							c-3.168,3.849-8.55,3.458-12.609,1.254c-4.926-2.676-7.344-8.164-9.226-13.171c-3.156-8.398-6.374-19.039-15.957-22.092
							c-10.508-3.347-18.723,6.395-23.654,14.209c-2.96,4.691-5.827,9.977-10.581,13.102c-4.253,2.795-10.326,4.2-14.497,0.479
							c-3.569-3.184-4.299-8.534-5.587-12.886c-1.35-4.561-3.484-8.682-7.056-11.904c-7.21-6.504-17.613-7.857-26.216-3.312
							c-4.495,2.375-7.797,6.084-10.127,10.556c-2.601,4.992-4.332,10.972-9.229,14.291c-5.148,3.49-10.264,0.89-12.807-4.223
							c-2.233-4.488-2.285-9.521-3.01-14.378c-0.694-4.65-2.1-9.417-5.817-12.568c-3.187-2.701-7.457-3.667-11.559-3.309
							c-10.776,0.939-17.702,8.901-24.843,16.105c-6.342,6.398-17.129,14.428-26.455,8.609c-7.519-4.691-5.463-15.799-9.145-22.821
							c-1.828-3.487-5.237-5.986-9.229-6.226c-4.625-0.279-8.913,2.36-12.265,5.29c-3.875,3.389-6.48,7.802-9.853,11.636
							c-3.239,3.683-7.604,7.701-12.905,7.028c-9.905-1.256-11.658-15.022-16.149-21.882c-2.245-3.429-5.348-6.78-9.473-7.798
							c-3.844-0.948-7.768,0.325-10.589,3.025c-7.037,6.734-6.321,18.216-14.127,24.358c-1.908,1.502-4.278,2.47-6.694,1.702
							c-2.605-0.828-4.061-3.146-5.177-5.482c-1.959-4.101-3.167-8.288-6.381-11.664c-5.954-6.253-16.066-8.914-24.136-5.468
							c-7.625,3.256-11.243,12.497-13.082,19.969c-1.155,4.692-1.721,9.533-1.753,14.362
							C1008.749,1547.038,1011.718,1547.04,1011.73,1545.127L1011.73,1545.127z"/>
					</g>
				</g>
				<g>
					<path style="fill:#FFBA9A;" d="M1275.645,1176.289v120.69c0,31.62-25.652,57.242-57.272,57.242h-4.038
						c-31.62,0-57.242-25.622-57.242-57.242v-120.69H1275.645z"/>
					<path style="fill:#013D55;" d="M1251.477,1223.734c-16.716,38.537-45.159,63.922-94.266,66.06l-0.119-0.03v-54.659
						L1251.477,1223.734z"/>
					<path style="fill:#013D55;" d="M1346.485,1137.633c-5.665,57.594-76.452,85.359-129.894,79.421
						c-61.929-6.881-104.355-67.629-101.688-125.44c2.969-64.364,85.255-97.975,144.739-79.421
						C1340.547,1037.429,1350.938,1092.355,1346.485,1137.633z"/>
					<path style="fill:#FFBA9A;" d="M1288.382,1173.142c-13.093,60.093-91.801,96.641-134.05,85.24
						c-27.938-7.571-41.032-29.096-38.389-64.397c0.98-12.945,4.068-27.73,9.352-44.387c0.267-0.891,0.564-1.781,0.861-2.702
						c8.64-26.483-0.623-106.498,79.629-98.125C1249.339,1053.313,1301.475,1113.049,1288.382,1173.142z"/>
					<g>
						
							<ellipse transform="matrix(0.3408 -0.9401 0.9401 0.3408 -293.3272 1885.3854)" style="fill:#013D55;" cx="1197.756" cy="1151.857" rx="7.979" ry="7.979"/>
						<path style="fill:#013D55;" d="M1148.527,1138.373c-3.417,2.193-4.408,6.741-2.215,10.157s6.741,4.408,10.157,2.215
							c3.417-2.193,4.408-6.741,2.215-10.157C1156.491,1137.172,1151.943,1136.18,1148.527,1138.373z"/>
						<path style="fill:#013D55;" d="M1174.671,1149.186c-0.442,1.421-1.19,2.376-1.914,3.366c-0.732,0.972-1.526,1.859-2.306,2.749
							c-1.59,1.749-3.202,3.435-4.816,5.091c-3.179,3.337-6.414,6.617-8.884,10.186c-1.195,1.771-2.274,3.634-2.566,5.385
							c-0.366,1.744,0.084,3.164,1.378,4.527c0.635,0.673,1.459,1.274,2.357,1.811c0.888,0.558,1.875,1.034,2.894,1.463
							c2.033,0.893,4.213,1.586,6.417,2.296c0.462,0.146,0.719,0.64,0.572,1.102c-0.122,0.385-0.49,0.627-0.875,0.612
							c-2.378-0.102-4.749-0.458-7.125-1.063c-2.355-0.643-4.769-1.543-6.916-3.368c-1.059-0.91-2.033-2.127-2.561-3.601
							c-0.552-1.46-0.657-3.06-0.427-4.482c0.224-1.435,0.699-2.727,1.264-3.91c0.567-1.185,1.219-2.281,1.946-3.297
							c2.896-4.062,6.375-7.325,9.909-10.416c1.759-1.552,3.573-3.019,5.331-4.506c0.889-0.731,1.751-1.484,2.586-2.233
							c0.803-0.748,1.658-1.554,2.1-2.303l0.062-0.105c0.243-0.412,0.775-0.55,1.187-0.306
							C1174.636,1148.39,1174.787,1148.811,1174.671,1149.186z"/>
						<path style="fill:#013D55;" d="M1194.892,1121.29c-1.497,3.72,8.257,8.735,15.513,12.136s14.07,4.171,15.22,1.719
							s-3.801-7.198-11.057-10.599C1207.313,1121.144,1195.904,1118.777,1194.892,1121.29z"/>
						<path style="fill:#013D55;" d="M1172.267,1118.783c0.391,3.981-7.796,5.345-13.822,6.052
							c-6.026,0.708-11.218-0.891-11.596-3.57c-0.378-2.68,4.201-5.426,10.227-6.133
							C1163.102,1114.424,1172.003,1116.094,1172.267,1118.783z"/>
						
							<ellipse transform="matrix(0.8587 -0.5124 0.5124 0.8587 -437.8259 793.5219)" style="opacity:0.4;fill:#FF9498;" cx="1220.345" cy="1190.872" rx="22.824" ry="22.824"/>
						<path style="opacity:0.4;fill:#FF9498;" d="M1140.377,1176.081c-2.464,11.401-13.093,18.942-24.435,17.903
							c0.98-12.945,4.068-27.73,9.352-44.387C1136.25,1153.22,1142.901,1164.591,1140.377,1176.081z"/>
						<path style="fill:#013D55;" d="M1189.183,1197.934c-2.245,2.526-4.802,4.809-7.721,6.715
							c-2.903,1.921-6.217,3.357-9.661,4.173c-3.446,0.831-6.988,0.986-10.414,0.723c-3.432-0.269-6.782-0.95-10.002-2.023
							c-0.462-0.154-0.712-0.654-0.558-1.116c0.12-0.361,0.451-0.593,0.811-0.603l0.019,0c3.34-0.093,6.596-0.042,9.799-0.168
							c3.202-0.119,6.329-0.476,9.354-1.132c3.027-0.67,5.918-1.768,8.764-3.152c2.844-1.39,5.614-3.103,8.509-4.765
							c0.422-0.244,0.961-0.1,1.205,0.322C1189.482,1197.244,1189.427,1197.658,1189.183,1197.934z"/>
					</g>
					<path style="fill:#013D55;" d="M1293.538,1178.951c-35.984-27.595-64.593-59.647-83.627-97.482
						c-42.943-5.77-67.344,11.852-84.122,39.092l10.639-67.545l77.194-23.752l94.266,66.802L1293.538,1178.951z"/>
					<circle style="fill:#013D55;" cx="1373.184" cy="1061.115" r="65.704"/>
					
						<ellipse transform="matrix(0.9088 -0.4172 0.4172 0.9088 -380.5579 643.1181)" style="fill:#FFBA9A;" cx="1281.092" cy="1192.226" rx="29.69" ry="26.756"/>
					<path style="fill:#013D55;" d="M1277.108,1197.754c2.353-9.547,13.098-15.493,22.439-12.455
						c1.534,0.499,2.191-1.915,0.665-2.411c-10.602-3.448-22.849,3.386-25.515,14.201
						C1274.313,1198.652,1276.723,1199.318,1277.108,1197.754L1277.108,1197.754z"/>
				</g>
			</g>
		</g>
	</g>
</g>
</svg>
