<?xml version="1.0" encoding="utf-8"?>
<!-- Generator: Adobe Illustrator 27.5.0, SVG Export Plug-In . SVG Version: 6.00 Build 0)  -->
<svg version="1.1" xmlns="http://www.w3.org/2000/svg" xmlns:xlink="http://www.w3.org/1999/xlink" x="0px" y="0px"
	 viewBox="0 0 500 500.001" style="enable-background:new 0 0 500 500.001;" xml:space="preserve">
<g id="BACKGROUND">
	<g>
		<g>
			<linearGradient id="SVGID_1_" gradientUnits="userSpaceOnUse" x1="282.0828" y1="402.8666" x2="233.2187" y2="170.0412">
				<stop  offset="0" style="stop-color:#BBD2FE"/>
				<stop  offset="1" style="stop-color:#E1E7FF"/>
			</linearGradient>
			<rect style="fill:url(#SVGID_1_);" width="500" height="500"/>
			
				<linearGradient id="SVGID_00000058572847767492475980000017872487728794399116_" gradientUnits="userSpaceOnUse" x1="36.626" y1="17.484" x2="201.4242" y2="164.0777">
				<stop  offset="0" style="stop-color:#E1E7FF"/>
				<stop  offset="1" style="stop-color:#BBD2FE"/>
			</linearGradient>
			<path style="fill:url(#SVGID_00000058572847767492475980000017872487728794399116_);" d="M118.19,115.427
				c34.493-48.865,108.269-22.995,141.803-74.734c8.913-12.998,10.626-26.86,8.324-40.693H0v208.485
				c14.608-1.756,28.876-5.626,42.498-12.576C77.948,178.664,96.153,146.087,118.19,115.427z"/>
			
				<linearGradient id="SVGID_00000125593702372607014500000008553296736903335316_" gradientUnits="userSpaceOnUse" x1="392.2297" y1="363.8427" x2="506.2475" y2="487.4424">
				<stop  offset="0" style="stop-color:#E1E7FF"/>
				<stop  offset="1" style="stop-color:#BBD2FE"/>
			</linearGradient>
			<path style="fill:url(#SVGID_00000125593702372607014500000008553296736903335316_);" d="M500,196.505
				c-4.457,2.597-8.774,5.572-12.931,8.986c-30.66,25.869-45.99,66.11-58.445,103.478c-14.372,42.158-29.702,84.315-59.404,118.809
				C339.477,462.027,298.71,486.1,255.696,500H500V196.505z"/>
		</g>
		<g style="opacity:0.3;">
			<path style="fill:#90B4FE;" d="M247.936,277.702c0.041-4.268-2.438-6.697-5.67-7.565l0.002-0.195
				c2.611-0.957,4.211-4.031,4.24-6.881c0.047-5.01-3.371-7.17-8.232-7.83l0.059-6.035l-2.742-0.027l-0.057,5.85
				c-0.242-0.008-0.484-0.02-0.732-0.021l-4.115-0.039l0.057-5.836l-2.74-0.027l-0.057,5.836l-4.086-0.039l-0.311,31.996
				l4.086,0.041l-0.045,4.625l2.74,0.025l0.045-4.625l4.848,0.047l-0.045,4.625l2.742,0.027l0.045-4.764
				C243.65,286.296,247.879,283.405,247.936,277.702z M231.021,260.556l3.436,0.033c3.385,0.033,4.994,0.98,4.969,3.482
				c-0.021,2.311-1.555,3.766-5.09,3.73l-3.385-0.033L231.021,260.556z M234.891,281.405l-4.072-0.041l0.08-8.242l4.072,0.039
				c3.977,0.039,5.928,1.184,5.9,3.98C240.842,280.089,238.818,281.442,234.891,281.405z"/>
			<path style="fill:#90B4FE;" d="M472.27,53.104c0-3.154-1.848-4.931-4.242-5.549V47.41c1.922-0.726,3.082-3.008,3.082-5.114
				c0-3.7-2.541-5.271-6.138-5.724v-4.461h-2.025v4.322c-0.18-0.004-0.358-0.01-0.541-0.01h-3.041v-4.313h-2.024v4.313h-3.019
				v23.641h3.019v3.417h2.024v-3.417h3.582v3.417h2.025v-3.521C469.166,59.482,472.27,57.317,472.27,53.104z M459.65,40.557h2.539
				c2.501,0,3.696,0.688,3.696,2.537c0,1.707-1.121,2.792-3.734,2.792h-2.501V40.557z M462.659,55.932h-3.009v-6.091h3.009
				c2.938,0,4.388,0.832,4.388,2.899C467.047,54.916,465.562,55.932,462.659,55.932z"/>
			<g>
				<path style="fill:#90B4FE;" d="M70.392,89.632c-3.824,0.197-8.559-0.693-12.014-2.918l2.992-6.986
					c3.652,1.857,6.672,2.65,9.721,2.129c3.561-0.611,4.898-2.348,4.398-5.271c-1.121-6.543-17.881-3.545-19.84-14.989
					c-1.066-6.226,1.879-11.182,7.645-13.414l-1.121-6.549l6.17-1.055l1.1,6.424c4.166-0.127,7.439,1.404,10.365,3.59l-3.791,6.146
					c-2.646-1.709-4.803-2.449-7.475-1.992c-3.049,0.523-4.498,2.014-4.008,4.877c1.033,6.034,17.732,2.652,19.813,14.794
					c1.045,6.104-1.52,11.385-7.828,13.904l1.131,6.611l-6.17,1.057L70.392,89.632z"/>
			</g>
			<g>
				<path style="fill:#90B4FE;" d="M446.942,362.287c-3.04-1.33-6.36-3.857-8.175-6.923l5.026-4.253
					c2.11,2.858,4.142,4.642,6.707,5.42c2.998,0.91,4.707,0.083,5.454-2.378c1.669-5.502-12.481-9.684-9.56-19.312
					c1.59-5.239,5.794-7.936,11.129-7.428l1.671-5.508l5.192,1.575l-1.64,5.403c3.275,1.517,5.217,3.975,6.638,6.803l-5.32,3.294
					c-1.389-2.353-2.773-3.762-5.021-4.443c-2.565-0.778-4.268-0.188-4.998,2.22c-1.541,5.078,12.714,8.938,9.614,19.152
					c-1.559,5.138-5.597,8.233-11.462,7.739l-1.686,5.56l-5.192-1.575L446.942,362.287z"/>
			</g>
			<g>
				<path style="fill:#90B4FE;" d="M24.591,457.876c-2.452-0.087-5.423-0.923-7.504-2.537l2.299-4.291
					c2.228,1.391,4.111,2.065,6.087,1.902c2.309-0.189,3.259-1.224,3.103-3.119c-0.348-4.236-11.217-3.264-11.827-10.68
					c-0.332-4.035,1.826-7.034,5.632-8.135l-0.349-4.242l3.999-0.329l0.342,4.162c2.666,0.151,4.669,1.313,6.416,2.872l-2.763,3.713
					c-1.595-1.24-2.931-1.833-4.662-1.69c-1.976,0.163-2.985,1.032-2.833,2.886c0.322,3.911,11.174,2.689,11.821,10.557
					c0.326,3.956-1.609,7.184-5.777,8.439l0.352,4.282l-3.999,0.329L24.591,457.876z"/>
			</g>
		</g>
	</g>
</g>
<g id="OBJECTS">
	<g>
		<g>
			<polygon style="opacity:0.3;fill:#8FB3FF;" points="0,313.663 89.128,313.663 185.037,169.536 266.779,169.536 326.576,98.236 
				356.877,121.814 362.935,38.904 351.832,27.802 279.737,59.321 290.841,70.423 301.961,79.078 250.688,140.57 168.943,140.57 
				73.035,268.663 0,268.663 			"/>
			<polygon style="fill:#90B4FE;" points="0,313.755 91.946,313.755 187.855,185.665 269.598,185.665 336.469,105.932 
				356.877,121.814 362.935,38.904 290.841,70.423 312.097,86.967 311.82,86.754 253.511,156.696 171.762,156.696 75.856,284.79 
				0,284.79 			"/>
		</g>
		<g>
			<g style="opacity:0.3;">
				<polygon style="fill:#8FB3FF;" points="395.552,333.253 270.221,333.253 270.221,500.001 288.833,500.001 414.165,500.001 
					414.165,352.89 				"/>
				<polygon style="fill:#8FB3FF;" points="217.974,381.253 92.641,381.253 92.641,500.001 111.253,500.001 236.587,500.001 
					236.587,400.89 				"/>
			</g>
			<g>
				<rect x="111.253" y="400.89" style="fill:#D8E5FE;" width="125.333" height="99.111"/>
				<rect x="288.833" y="352.89" style="fill:#D8E5FE;" width="125.332" height="147.111"/>
			</g>
		</g>
		<g>
			<g>
				
					<linearGradient id="SVGID_00000170243771536579214780000011945360700389617087_" gradientUnits="userSpaceOnUse" x1="123.4136" y1="260.0714" x2="138.1055" y2="260.0714">
					<stop  offset="0" style="stop-color:#F48B78"/>
					<stop  offset="1" style="stop-color:#F6A9A3"/>
				</linearGradient>
				<path style="fill:url(#SVGID_00000170243771536579214780000011945360700389617087_);" d="M132.79,257.43l-1.343-9.693
					l-8.033,5.447l3.087,5.898c-0.123,1.123-1.239,11.602-0.497,11.766c1.172,0.258,1.699-2.527,2.636-4.971
					c0.517,1.74,2.036,6.691,2.682,6.525c1.405-0.361,0.593-4.994,0.399-8.443c1.199,1.908,3.735,5.805,4.266,5.506
					c1.107-0.625-0.336-5.201-1.816-8.744c0,0,3.346,0.291,3.865-0.535C138.822,258.922,132.79,257.43,132.79,257.43L132.79,257.43"
					/>
				<path style="fill:#FFFFFF;" d="M160.256,201.103c-10.009-0.316-37.31,6.428-42.403,22.48c-5.092,16.051,7.35,35.116,7.35,35.116
					l8.847-4.715c0,0-4.866-15.59-1.579-23.324c3.287-7.732,18.016-10.432,24.959-12.265
					C167.458,215.749,171.917,201.471,160.256,201.103z"/>
				<g>
					<path style="fill:#BDD0FB;" d="M124.165,255.91c2.733-1.54,5.459-3.264,8.337-4.521c0.148-0.064,0.02-0.28-0.127-0.216
						c-2.877,1.258-5.603,2.98-8.337,4.52C123.898,255.773,124.024,255.988,124.165,255.91L124.165,255.91z"/>
				</g>
				<g>
					<path style="fill:#1D0C8C;" d="M136.413,287.68c-0.266,0.24-0.676,0.219-0.916-0.047l-16.507-18.347
						c-0.239-0.266-0.218-0.677,0.049-0.916l25.169-22.648c0.267-0.239,0.678-0.217,0.916,0.049l16.507,18.346
						c0.24,0.268,0.219,0.676-0.048,0.916L136.413,287.68z"/>
					<path style="fill:#BDD0FB;" d="M137.741,285.029c-0.267,0.24-0.677,0.219-0.916-0.047l-15.059-16.736
						c-0.24-0.267-0.219-0.678,0.049-0.917l22.475-20.224c0.267-0.239,0.677-0.219,0.917,0.048l15.059,16.737
						c0.239,0.266,0.218,0.676-0.049,0.916L137.741,285.029z"/>
					<g>
						
							<linearGradient id="SVGID_00000014611070819214450410000013641225825522684088_" gradientUnits="userSpaceOnUse" x1="262.4343" y1="355.0833" x2="273.8253" y2="361.2691" gradientTransform="matrix(0.6688 0.7434 -0.7434 0.6688 240.7272 -180.9466)">
							<stop  offset="0.0026" style="stop-color:#5758FF"/>
							<stop  offset="0.9968" style="stop-color:#1B1F37"/>
						</linearGradient>
						<path style="fill:url(#SVGID_00000014611070819214450410000013641225825522684088_);" d="M156.581,256.994l-1.311-1.459
							c0.699-0.629,0.756-1.707,0.126-2.406c-0.63-0.701-1.708-0.758-2.407-0.129l-1.313-1.457
							c-0.479-0.533-1.299-0.576-1.832-0.097l-0.081,0.073c-0.532,0.478-0.576,1.299-0.097,1.832l4.904,5.451
							c0.479,0.532,1.3,0.574,1.833,0.096l0.081-0.072C157.017,258.348,157.06,257.525,156.581,256.994z M153.576,254.766
							c-0.288-0.32-0.262-0.813,0.059-1.102c0.319-0.287,0.814-0.262,1.101,0.059c0.289,0.32,0.262,0.813-0.058,1.102
							C154.357,255.111,153.864,255.086,153.576,254.766z"/>
					</g>
					<g style="opacity:0.5;">
						
							<linearGradient id="SVGID_00000131363656561930139780000005944170242041511837_" gradientUnits="userSpaceOnUse" x1="251.2195" y1="362.0147" x2="274.0643" y2="362.0147" gradientTransform="matrix(0.6688 0.7434 -0.7434 0.6688 240.7272 -180.9466)">
							<stop  offset="0" style="stop-color:#6986D9"/>
							<stop  offset="1" style="stop-color:#8FB3FF"/>
						</linearGradient>
						<path style="fill:url(#SVGID_00000131363656561930139780000005944170242041511837_);" d="M148.312,257.584
							c-0.241,0.217-0.613,0.197-0.83-0.043l-4.308-4.787c-0.217-0.242-0.197-0.613,0.044-0.83l0,0
							c0.24-0.217,0.612-0.197,0.828,0.044l4.309,4.787C148.572,256.996,148.551,257.367,148.312,257.584L148.312,257.584z"/>
						
							<linearGradient id="SVGID_00000075851805680304708910000014369964143484417416_" gradientUnits="userSpaceOnUse" x1="251.2212" y1="365.6798" x2="274.0623" y2="365.6798" gradientTransform="matrix(0.6688 0.7434 -0.7434 0.6688 240.7272 -180.9466)">
							<stop  offset="0" style="stop-color:#6986D9"/>
							<stop  offset="1" style="stop-color:#8FB3FF"/>
						</linearGradient>
						<path style="fill:url(#SVGID_00000075851805680304708910000014369964143484417416_);" d="M143.417,257.623
							c-0.241,0.219-0.612,0.199-0.829-0.043l-2.543-2.825c-0.217-0.241-0.197-0.612,0.044-0.829l0,0
							c0.241-0.217,0.612-0.197,0.829,0.044l2.542,2.825C143.678,257.036,143.659,257.408,143.417,257.623L143.417,257.623z"/>
						
							<linearGradient id="SVGID_00000121267801085666818900000005119333863108950414_" gradientUnits="userSpaceOnUse" x1="251.2195" y1="365.6796" x2="274.0648" y2="365.6796" gradientTransform="matrix(0.6688 0.7434 -0.7434 0.6688 240.7272 -180.9466)">
							<stop  offset="0" style="stop-color:#6986D9"/>
							<stop  offset="1" style="stop-color:#8FB3FF"/>
						</linearGradient>
						<path style="fill:url(#SVGID_00000121267801085666818900000005119333863108950414_);" d="M148.704,263.5
							c-0.24,0.218-0.611,0.197-0.828-0.043l-4.259-4.732c-0.216-0.241-0.197-0.613,0.044-0.83l0,0
							c0.241-0.217,0.613-0.196,0.83,0.045l4.257,4.732C148.965,262.912,148.946,263.283,148.704,263.5L148.704,263.5z"/>
						
							<linearGradient id="SVGID_00000063627561302347403710000010398642452517312917_" gradientUnits="userSpaceOnUse" x1="251.2201" y1="370.0918" x2="274.0666" y2="370.0918" gradientTransform="matrix(0.6688 0.7434 -0.7434 0.6688 240.7272 -180.9466)">
							<stop  offset="0" style="stop-color:#6986D9"/>
							<stop  offset="1" style="stop-color:#8FB3FF"/>
						</linearGradient>
						<path style="fill:url(#SVGID_00000063627561302347403710000010398642452517312917_);" d="M144.783,265.737
							c-0.241,0.218-0.613,0.198-0.83-0.044l-7.187-7.986c-0.217-0.242-0.198-0.613,0.043-0.83l0,0
							c0.241-0.217,0.612-0.197,0.829,0.043l7.188,7.988C145.042,265.148,145.023,265.521,144.783,265.737L144.783,265.737z"/>
						
							<linearGradient id="SVGID_00000126284120491371109720000001090982397224946609_" gradientUnits="userSpaceOnUse" x1="251.2192" y1="372.526" x2="274.0642" y2="372.526" gradientTransform="matrix(0.6688 0.7434 -0.7434 0.6688 240.7272 -180.9466)">
							<stop  offset="0" style="stop-color:#6986D9"/>
							<stop  offset="1" style="stop-color:#8FB3FF"/>
						</linearGradient>
						<path style="fill:url(#SVGID_00000126284120491371109720000001090982397224946609_);" d="M140.092,264.165
							c-0.24,0.217-0.612,0.197-0.829-0.044l-4.308-4.787c-0.217-0.242-0.197-0.612,0.044-0.83l0,0
							c0.241-0.216,0.612-0.195,0.83,0.044l4.307,4.788C140.353,263.578,140.333,263.948,140.092,264.165L140.092,264.165z"/>
						
							<linearGradient id="SVGID_00000023998523194118031800000005934218141415511225_" gradientUnits="userSpaceOnUse" x1="251.2179" y1="372.5256" x2="274.0668" y2="372.5256" gradientTransform="matrix(0.6688 0.7434 -0.7434 0.6688 240.7272 -180.9466)">
							<stop  offset="0" style="stop-color:#6986D9"/>
							<stop  offset="1" style="stop-color:#8FB3FF"/>
						</linearGradient>
						<path style="fill:url(#SVGID_00000023998523194118031800000005934218141415511225_);" d="M144.008,268.516
							c-0.241,0.217-0.613,0.197-0.83-0.043l-2.486-2.764c-0.217-0.242-0.197-0.612,0.043-0.83l0,0
							c0.241-0.216,0.612-0.197,0.829,0.043l2.487,2.766C144.268,267.928,144.25,268.299,144.008,268.516L144.008,268.516z"/>
						
							<linearGradient id="SVGID_00000018924927458089764110000010335695582860377985_" gradientUnits="userSpaceOnUse" x1="251.2204" y1="376.1263" x2="274.0652" y2="376.1263" gradientTransform="matrix(0.6688 0.7434 -0.7434 0.6688 240.7272 -180.9466)">
							<stop  offset="0" style="stop-color:#6986D9"/>
							<stop  offset="1" style="stop-color:#8FB3FF"/>
						</linearGradient>
						<path style="fill:url(#SVGID_00000018924927458089764110000010335695582860377985_);" d="M138.452,267.723
							c-0.241,0.219-0.612,0.198-0.829-0.043l-5.343-5.938c-0.217-0.241-0.197-0.613,0.044-0.83l0,0
							c0.241-0.217,0.612-0.197,0.829,0.045l5.343,5.938C138.712,267.136,138.693,267.506,138.452,267.723L138.452,267.723z"/>
						
							<linearGradient id="SVGID_00000060030046233506881670000013498393733767740345_" gradientUnits="userSpaceOnUse" x1="251.2196" y1="376.1257" x2="274.0665" y2="376.1257" gradientTransform="matrix(0.6688 0.7434 -0.7434 0.6688 240.7272 -180.9466)">
							<stop  offset="0" style="stop-color:#6986D9"/>
							<stop  offset="1" style="stop-color:#8FB3FF"/>
						</linearGradient>
						<path style="fill:url(#SVGID_00000060030046233506881670000013498393733767740345_);" d="M141.332,270.924
							c-0.241,0.217-0.612,0.197-0.829-0.043l-1.771-1.969c-0.217-0.241-0.196-0.612,0.045-0.83l0,0
							c0.24-0.217,0.611-0.197,0.828,0.045l1.771,1.968C141.591,270.336,141.573,270.707,141.332,270.924L141.332,270.924z"/>
						
							<linearGradient id="SVGID_00000134950567561458764550000002827187002673718163_" gradientUnits="userSpaceOnUse" x1="251.2216" y1="378.5604" x2="274.0642" y2="378.5604" gradientTransform="matrix(0.6688 0.7434 -0.7434 0.6688 240.7272 -180.9466)">
							<stop  offset="0" style="stop-color:#6986D9"/>
							<stop  offset="1" style="stop-color:#8FB3FF"/>
						</linearGradient>
						<path style="fill:url(#SVGID_00000134950567561458764550000002827187002673718163_);" d="M137.885,270.733
							c-0.241,0.219-0.611,0.199-0.828-0.042l-6.587-7.32c-0.217-0.241-0.197-0.612,0.044-0.829l0,0
							c0.241-0.217,0.611-0.197,0.829,0.044l6.586,7.319C138.146,270.147,138.126,270.518,137.885,270.733L137.885,270.733z"/>
						
							<linearGradient id="SVGID_00000031908913461952610260000016893738641416842636_" gradientUnits="userSpaceOnUse" x1="251.2211" y1="382.1604" x2="274.0659" y2="382.1604" gradientTransform="matrix(0.6688 0.7434 -0.7434 0.6688 240.7272 -180.9466)">
							<stop  offset="0" style="stop-color:#6986D9"/>
							<stop  offset="1" style="stop-color:#8FB3FF"/>
						</linearGradient>
						<path style="fill:url(#SVGID_00000031908913461952610260000016893738641416842636_);" d="M132.241,269.842
							c-0.241,0.217-0.611,0.197-0.828-0.043l-3.618-4.021c-0.217-0.24-0.197-0.611,0.044-0.829l0,0
							c0.241-0.216,0.611-0.197,0.829,0.045l3.617,4.021C132.501,269.254,132.482,269.625,132.241,269.842L132.241,269.842z"/>
						
							<linearGradient id="SVGID_00000006698438382819843510000010201060078862295474_" gradientUnits="userSpaceOnUse" x1="251.2208" y1="382.1598" x2="274.0669" y2="382.1598" gradientTransform="matrix(0.6688 0.7434 -0.7434 0.6688 240.7272 -180.9466)">
							<stop  offset="0" style="stop-color:#6986D9"/>
							<stop  offset="1" style="stop-color:#8FB3FF"/>
						</linearGradient>
						<path style="fill:url(#SVGID_00000006698438382819843510000010201060078862295474_);" d="M137.039,275.174
							c-0.241,0.217-0.612,0.197-0.829-0.043l-3.774-4.195c-0.217-0.241-0.197-0.611,0.044-0.829l0,0
							c0.241-0.216,0.611-0.196,0.829,0.044l3.774,4.194C137.299,274.586,137.28,274.957,137.039,275.174L137.039,275.174z"/>
						
							<linearGradient id="SVGID_00000116229998780067194860000013501399089720407215_" gradientUnits="userSpaceOnUse" x1="251.2215" y1="384.5947" x2="274.0641" y2="384.5947" gradientTransform="matrix(0.6688 0.7434 -0.7434 0.6688 240.7272 -180.9466)">
							<stop  offset="0" style="stop-color:#6986D9"/>
							<stop  offset="1" style="stop-color:#8FB3FF"/>
						</linearGradient>
						<path style="fill:url(#SVGID_00000116229998780067194860000013501399089720407215_);" d="M129.37,270.289
							c-0.241,0.219-0.612,0.199-0.829-0.043l-2.556-2.84c-0.218-0.241-0.197-0.613,0.044-0.83l0,0
							c0.24-0.217,0.612-0.196,0.829,0.045l2.556,2.84C129.63,269.703,129.611,270.072,129.37,270.289L129.37,270.289z"/>
					</g>
					<g>
						
							<linearGradient id="SVGID_00000075136763072829364360000017684568418452947870_" gradientUnits="userSpaceOnUse" x1="272.5394" y1="381.4249" x2="272.5394" y2="363.0738" gradientTransform="matrix(0.6688 0.7434 -0.7434 0.6688 240.7272 -180.9466)">
							<stop  offset="0" style="stop-color:#6986D9"/>
							<stop  offset="1" style="stop-color:#8FB3FF"/>
						</linearGradient>
						<path style="fill:url(#SVGID_00000075136763072829364360000017684568418452947870_);" d="M153.427,265.653
							c0.145,0.159,0.131,0.406-0.028,0.551l-1.628,1.464c-0.159,0.143-0.406,0.131-0.549-0.029l-1.465-1.629
							c-0.145-0.158-0.132-0.404,0.028-0.549l1.627-1.465c0.16-0.142,0.407-0.129,0.55,0.029L153.427,265.653 M153.621,265.48
							l-1.465-1.628c-0.239-0.267-0.649-0.288-0.916-0.048l-1.628,1.464c-0.266,0.239-0.287,0.649-0.048,0.916l1.464,1.628
							c0.24,0.266,0.65,0.287,0.916,0.049l1.629-1.465C153.838,266.156,153.86,265.746,153.621,265.48L153.621,265.48z"/>
						
							<linearGradient id="SVGID_00000040543897936889050300000003073704811686396580_" gradientUnits="userSpaceOnUse" x1="272.5397" y1="381.4246" x2="272.5397" y2="363.0725" gradientTransform="matrix(0.6688 0.7434 -0.7434 0.6688 240.7272 -180.9466)">
							<stop  offset="0" style="stop-color:#6986D9"/>
							<stop  offset="1" style="stop-color:#8FB3FF"/>
						</linearGradient>
						<path style="fill:url(#SVGID_00000040543897936889050300000003073704811686396580_);" d="M148.851,269.772
							c0.144,0.158,0.132,0.404-0.028,0.549l-1.627,1.464c-0.16,0.145-0.407,0.132-0.551-0.028l-1.464-1.627
							c-0.144-0.16-0.131-0.406,0.029-0.551l1.627-1.464c0.16-0.144,0.406-0.13,0.55,0.029L148.851,269.772 M149.044,269.597
							l-1.464-1.627c-0.24-0.267-0.65-0.288-0.917-0.048l-1.628,1.464c-0.266,0.24-0.287,0.649-0.048,0.916l1.465,1.628
							c0.239,0.267,0.649,0.287,0.916,0.049l1.628-1.465C149.262,270.273,149.285,269.863,149.044,269.597L149.044,269.597z"/>
						
							<linearGradient id="SVGID_00000006685695112812011320000002847413645884554377_" gradientUnits="userSpaceOnUse" x1="272.5397" y1="381.4254" x2="272.5397" y2="363.0676" gradientTransform="matrix(0.6688 0.7434 -0.7434 0.6688 240.7272 -180.9466)">
							<stop  offset="0" style="stop-color:#6986D9"/>
							<stop  offset="1" style="stop-color:#8FB3FF"/>
						</linearGradient>
						<path style="fill:url(#SVGID_00000006685695112812011320000002847413645884554377_);" d="M144.276,273.889
							c0.144,0.159,0.13,0.405-0.029,0.549l-1.627,1.465c-0.16,0.143-0.406,0.13-0.55-0.029l-1.464-1.627
							c-0.145-0.16-0.131-0.406,0.029-0.551l1.627-1.464c0.159-0.144,0.405-0.131,0.55,0.029L144.276,273.889 M144.468,273.714
							l-1.464-1.628c-0.239-0.266-0.65-0.287-0.916-0.047l-1.628,1.463c-0.266,0.24-0.287,0.65-0.049,0.918l1.465,1.627
							c0.239,0.266,0.65,0.287,0.916,0.048l1.628-1.464C144.686,274.391,144.708,273.98,144.468,273.714L144.468,273.714z"/>
						
							<linearGradient id="SVGID_00000066484896062597252920000000990782638984188845_" gradientUnits="userSpaceOnUse" x1="272.5406" y1="381.4222" x2="272.5406" y2="363.0648" gradientTransform="matrix(0.6688 0.7434 -0.7434 0.6688 240.7272 -180.9466)">
							<stop  offset="0" style="stop-color:#6986D9"/>
							<stop  offset="1" style="stop-color:#8FB3FF"/>
						</linearGradient>
						<path style="fill:url(#SVGID_00000066484896062597252920000000990782638984188845_);" d="M139.701,278.006
							c0.143,0.158,0.13,0.405-0.029,0.549l-1.628,1.465c-0.159,0.143-0.406,0.131-0.55-0.029l-1.465-1.628
							c-0.143-0.159-0.13-0.405,0.029-0.55l1.628-1.465c0.159-0.143,0.406-0.13,0.549,0.029L139.701,278.006 M139.893,277.831
							l-1.464-1.628c-0.24-0.266-0.651-0.287-0.917-0.047l-1.627,1.464c-0.267,0.239-0.289,0.649-0.049,0.917l1.464,1.627
							c0.24,0.266,0.65,0.287,0.917,0.048l1.627-1.464C140.111,278.508,140.133,278.098,139.893,277.831L139.893,277.831z"/>
					</g>
					<g>
						<g>
							<path style="fill:#6986D9;" d="M151.121,266.369c-0.063-0.068-0.097-0.16-0.095-0.254l0.028-2.676
								c0.002-0.205,0.171-0.371,0.376-0.369c0.206,0.003,0.371,0.172,0.369,0.377l-0.025,2.287l4.33-0.148
								c0.205-0.007,0.377,0.154,0.385,0.359c0.006,0.205-0.154,0.378-0.359,0.385l-4.719,0.162c-0.102,0.003-0.2-0.035-0.273-0.105
								C151.131,266.381,151.126,266.375,151.121,266.369z"/>
						</g>
						<g>
							<path style="fill:#6986D9;" d="M146.417,270.602c-0.063-0.069-0.097-0.16-0.096-0.254l0.028-2.676
								c0.002-0.205,0.171-0.37,0.377-0.369c0.205,0.003,0.37,0.172,0.367,0.377l-0.024,2.287l4.33-0.148
								c0.205-0.008,0.377,0.153,0.385,0.359c0.007,0.205-0.153,0.377-0.359,0.385l-4.719,0.162c-0.102,0.003-0.2-0.035-0.272-0.105
								C146.428,270.613,146.422,270.608,146.417,270.602z"/>
						</g>
						<g>
							<path style="fill:#6986D9;" d="M141.713,274.834c-0.063-0.07-0.097-0.16-0.096-0.254l0.029-2.676
								c0.002-0.207,0.171-0.371,0.376-0.369c0.205,0.004,0.371,0.172,0.368,0.377l-0.024,2.287l4.329-0.148
								c0.206-0.008,0.378,0.153,0.386,0.359c0.006,0.205-0.154,0.379-0.36,0.385l-4.719,0.162
								c-0.101,0.003-0.199-0.035-0.273-0.105C141.724,274.846,141.719,274.84,141.713,274.834z"/>
						</g>
						<g>
							<path style="fill:#6986D9;" d="M137.009,279.066c-0.061-0.069-0.096-0.16-0.096-0.254l0.029-2.676
								c0.002-0.205,0.172-0.371,0.377-0.369c0.205,0.002,0.37,0.172,0.368,0.377l-0.025,2.286l4.33-0.147
								c0.205-0.008,0.377,0.152,0.385,0.359c0.007,0.205-0.154,0.377-0.36,0.385l-4.718,0.162c-0.102,0.003-0.2-0.035-0.273-0.107
								C137.021,279.078,137.016,279.072,137.009,279.066z"/>
						</g>
					</g>
				</g>
			</g>
			
				<linearGradient id="SVGID_00000128453671838764085740000002694449454450974099_" gradientUnits="userSpaceOnUse" x1="104.689" y1="371.128" x2="124.5376" y2="371.128">
				<stop  offset="0" style="stop-color:#F48B78"/>
				<stop  offset="1" style="stop-color:#F6A9A3"/>
			</linearGradient>
			<path style="fill:url(#SVGID_00000128453671838764085740000002694449454450974099_);" d="M116.655,358.994
				c-0.216,0.184-11.966,7.402-11.966,7.402s6.293,9.803,14.473,16.865l-2.734-10.738l8.11-4.344L116.655,358.994z"/>
			<path style="fill:#05043F;" d="M117.064,372.733c0,0,4.616,12.965,4.07,13.238c-0.547,0.273-10.079-8.473-17.391-19.576
				l4.797-3.596c0,0,0.253,4.014,6.192,8.355c0,0,3.292-1.299,4.187,0.035C119.814,372.523,117.064,372.733,117.064,372.733z"/>
			<g>
				<path style="fill:#BDD0FB;" d="M115.968,373.041c0.785-0.195,1.501-0.246,2.219,0.182c0.555,0.332-0.009,1.158-0.56,0.83
					c-0.474-0.283-0.977-0.152-1.479-0.029C115.522,374.18,115.344,373.195,115.968,373.041z"/>
				<path style="fill:#BDD0FB;" d="M118.906,375.73c0.568,0.309,0.002,1.135-0.559,0.83c-0.463-0.252-0.915-0.045-1.308,0.238
					c-0.519,0.375-1.175-0.381-0.651-0.758C117.18,375.469,118.011,375.246,118.906,375.73z"/>
				<path style="fill:#BDD0FB;" d="M119.443,378.297c0.626,0.123,0.557,1.121-0.076,0.998c-0.664-0.129-1.176-0.074-1.769,0.256
					c-0.563,0.314-0.987-0.592-0.427-0.904C117.898,378.242,118.628,378.141,119.443,378.297z"/>
			</g>
			
				<linearGradient id="SVGID_00000139265701279079319460000017066462341390702480_" gradientUnits="userSpaceOnUse" x1="171.4117" y1="387.7659" x2="193.6353" y2="387.7659">
				<stop  offset="0" style="stop-color:#F48B78"/>
				<stop  offset="1" style="stop-color:#F6A9A3"/>
			</linearGradient>
			<path style="fill:url(#SVGID_00000139265701279079319460000017066462341390702480_);" d="M173.586,380.457
				c0,0.285-2.175,13.902-2.175,13.902s11.537,1.609,22.224,0l-9.93-4.918l1.985-8.984H173.586z"/>
			<path style="fill:#05043F;" d="M184.28,389.094c0,0,12.844,4.939,12.695,5.533c-0.148,0.592-12.992,2.131-26.181,0.447
				l0.395-5.98c0,0,3.21,2.422,10.373,0.742c0,0,1.158-3.346,2.753-3.154C185.911,386.871,184.28,389.094,184.28,389.094z"/>
			<g>
				<path style="fill:#BDD0FB;" d="M183.799,390.127c0.363-0.723,0.791-1.299,1.583-1.565c0.613-0.205,0.874,0.76,0.266,0.965
					c-0.523,0.174-0.752,0.641-0.985,1.103C184.373,391.207,183.51,390.701,183.799,390.127z"/>
				<path style="fill:#BDD0FB;" d="M187.753,389.648c0.604-0.23,0.862,0.738,0.266,0.965c-0.492,0.188-0.629,0.666-0.67,1.148
					c-0.054,0.637-1.054,0.642-1,0C186.431,390.787,186.803,390.012,187.753,389.648z"/>
				<path style="fill:#BDD0FB;" d="M190.051,390.914c0.5-0.396,1.212,0.307,0.707,0.707c-0.529,0.42-0.821,0.844-0.957,1.508
					c-0.129,0.633-1.093,0.363-0.965-0.266C189.003,392.049,189.402,391.428,190.051,390.914z"/>
			</g>
			<path style="fill:#110777;" d="M141.666,251.854c0,0-2.583,14.361,0,33.997c3.604,27.407,6.447,48.066-31.947,76.495
				c0,0,0.896,5.225,8.512,9.635c0,0,40.687-19.041,52.111-53.314c0,0,1.402,51.51,0,66.943c0,0,6.215,4.809,14.832,0
				c0,0,10.823-40.887,8.619-72.555c-2.205-31.668-9.525-55.108-9.525-55.108L141.666,251.854z"/>
			<g>
				<g>
					<path style="fill:#5758FF;" d="M170.306,318.94c-0.024-0.003-0.049-0.009-0.074-0.02c-0.125-0.055-0.186-0.202-0.129-0.329
						c0.098-0.225,9.678-22.755,5.533-45.424c-0.023-0.136,0.065-0.267,0.201-0.291c0.135-0.025,0.266,0.064,0.291,0.201
						c4.172,22.822-5.469,45.485-5.567,45.713C170.517,318.894,170.412,318.951,170.306,318.94z"/>
				</g>
				<g>
					<path style="fill:#5758FF;" d="M176.593,278.758c-0.029-0.003-0.057-0.011-0.084-0.024c-0.125-0.061-0.174-0.212-0.113-0.335
						l3.359-6.771c0.061-0.125,0.213-0.176,0.334-0.113c0.124,0.061,0.175,0.211,0.113,0.335l-3.358,6.771
						C176.796,278.717,176.695,278.769,176.593,278.758z"/>
				</g>
				<g>
					<path style="fill:#5758FF;" d="M152.171,278.547c-0.099-0.011-0.187-0.08-0.215-0.182c-0.037-0.134,0.041-0.271,0.174-0.309
						c5.651-1.563,12.134-11.795,12.198-11.898c0.074-0.116,0.229-0.149,0.346-0.078c0.116,0.073,0.151,0.228,0.078,0.345
						c-0.27,0.428-6.65,10.5-12.488,12.114C152.232,278.548,152.201,278.55,152.171,278.547z"/>
				</g>
			</g>
			<g>
				<path style="fill:#5758FF;" d="M165.93,264.926c-14.896,0-24.733-4.147-25.298-4.391l0,0l0.483-4.465l1.101,0.791
					c0.181,0.078,18.365,7.691,42.338,1.787l0.957,3.884C178.378,264.289,171.765,264.926,165.93,264.926z"/>
			</g>
			<g>
				<path style="fill:#110777;" d="M153.38,180.916c0.467-6.066,5.543-10.197,11.627-9.885c3.561-0.115,12.311,1.135,12.123,4.635
					s-3.816,5.497-3.816,5.497l-0.303-0.15c-0.003,0.01-0.004,0.019-0.006,0.028c-1.344,5.934-4.511,12.613-10.291,12.188
					C156.933,192.802,152.912,186.984,153.38,180.916z"/>
				
					<linearGradient id="SVGID_00000174585049626789721480000018068994279359972786_" gradientUnits="userSpaceOnUse" x1="-460.2772" y1="89.9167" x2="-448.9606" y2="89.9167" gradientTransform="matrix(0.954 -0.2998 0.2998 0.954 569.2016 -23.3307)">
					<stop  offset="0" style="stop-color:#F48B78"/>
					<stop  offset="1" style="stop-color:#F6A9A3"/>
				</linearGradient>
				<path style="fill:url(#SVGID_00000174585049626789721480000018068994279359972786_);" d="M161.532,190.262l-4.31,10.712
					c0,0,1.873,6.654,10.171,4.989l-0.847-13.064L161.532,190.262z"/>
				<g>
					
						<linearGradient id="SVGID_00000018203182532669834240000006391742380091872659_" gradientUnits="userSpaceOnUse" x1="-453.0582" y1="80.0739" x2="-438.9319" y2="80.0739" gradientTransform="matrix(0.954 -0.2998 0.2998 0.954 569.2016 -23.3307)">
						<stop  offset="0" style="stop-color:#F48B78"/>
						<stop  offset="1" style="stop-color:#F6A9A3"/>
					</linearGradient>
					<path style="fill:url(#SVGID_00000018203182532669834240000006391742380091872659_);" d="M161.621,186.259
						c-0.025,0.34-0.667,0.095-1,0.128l0.486,2.693c0.66,3.646,4.15,6.069,7.799,5.413c3.646-0.662,6.069-4.154,5.408-7.799
						l-1-5.531c-0.244-1.352-0.879-2.535-1.764-3.455C165.38,178.353,161.88,182.728,161.621,186.259z"/>
				</g>
				
					<linearGradient id="SVGID_00000025400539082650068210000003104255807999040413_" gradientUnits="userSpaceOnUse" x1="-455.7434" y1="80.0195" x2="-450.3734" y2="80.0195" gradientTransform="matrix(0.954 -0.2998 0.2998 0.954 569.2016 -23.3307)">
					<stop  offset="0" style="stop-color:#F48B78"/>
					<stop  offset="1" style="stop-color:#F6A9A3"/>
				</linearGradient>
				<path style="fill:url(#SVGID_00000025400539082650068210000003104255807999040413_);" d="M163.616,188.357
					c0.263,1.458-0.704,2.855-2.165,3.119c-1.459,0.265-2.855-0.705-3.119-2.165c-0.264-1.458,0.705-2.855,2.166-3.118
					C161.957,185.929,163.351,186.898,163.616,188.357z"/>
				<g>
					<path style="fill:#DD4F4B;" d="M161.498,190.497c-0.068,0.022-0.142,0.038-0.214,0.053c-0.456,0.08-0.921-0.02-1.302-0.285
						c-0.383-0.265-0.639-0.662-0.721-1.119c-0.17-0.934,0.447-1.847,1.404-2.024c0.944-0.169,1.85,0.458,2.021,1.403
						C162.843,189.387,162.331,190.233,161.498,190.497z M160.525,187.416c-0.711,0.223-1.148,0.948-1.016,1.683
						c0.071,0.392,0.29,0.733,0.615,0.96c0.328,0.227,0.723,0.312,1.115,0.24c0.818-0.149,1.344-0.93,1.2-1.73
						c-0.147-0.808-0.923-1.344-1.729-1.198C160.646,187.381,160.585,187.398,160.525,187.416z"/>
				</g>
				<g>
					<path style="fill:#110777;" d="M173.001,184.253c-0.181,0.585-0.528,1.148-1.218,0.998c-0.625-0.136-1.106-0.831-1.38-1.356
						c-0.104-0.2,0.198-0.377,0.303-0.177c0.216,0.415,0.498,0.799,0.889,1.064c0.569,0.386,0.907-0.1,1.068-0.623
						C172.73,183.945,173.068,184.037,173.001,184.253L173.001,184.253z"/>
				</g>
				<g>
					<path style="fill:#110777;" d="M172.994,191.145c-1.277,0.58-2.334-0.316-2.374-1.636c-0.007-0.226,0.343-0.225,0.35,0
						c0.032,1.033,0.815,1.803,1.849,1.335C173.021,190.751,173.2,191.053,172.994,191.145L172.994,191.145z"/>
				</g>
				<path style="fill:#F48B78;" d="M171.091,186.633c0.12,0.667-0.321,1.305-0.988,1.426c-0.666,0.121-1.306-0.323-1.426-0.989
					c-0.12-0.668,0.322-1.307,0.99-1.426C170.333,185.522,170.972,185.966,171.091,186.633z"/>
				<path style="fill:#DD4F4B;" d="M173.755,183.975c0.126,0.902,0.296,4.127,0.607,4.364c0.311,0.233,1.839-0.467,1.827-0.894
					C176.178,187.021,173.657,183.261,173.755,183.975z"/>
			</g>
			<g>
				<path style="fill:#FFFFFF;" d="M140.985,257.433c0,0-8.13-47.486,16.021-57.352c7.269-2.97,14.633,1.16,21.373,18.227
					c7.428,18.811,6.307,41.05,6.307,41.05S167.393,267.156,140.985,257.433z"/>
				
					<linearGradient id="SVGID_00000181085181066023758570000006133721195673807250_" gradientUnits="userSpaceOnUse" x1="155.4067" y1="202.4369" x2="175.7956" y2="199.625">
					<stop  offset="6.377600e-04" style="stop-color:#E1E7FF"/>
					<stop  offset="0.9852" style="stop-color:#FFFFFF"/>
				</linearGradient>
				<path style="fill:url(#SVGID_00000181085181066023758570000006133721195673807250_);" d="M169.884,205.636l-1.814-6.148
					c0,0-9.923-2.912-10.084-2.588c-0.161,0.324-1.461,3.385-1.461,3.385L169.884,205.636z"/>
				<g>
					<path style="fill:#BDD0FB;" d="M170.597,206.951c3.478,7.563,6.186,15.406,7.903,23.555c1.813,8.597,2.052,17.639,2.124,26.4
						c0.001,0.161,0.251,0.161,0.25,0c-0.07-8.504-0.354-17.189-1.95-25.56c-1.619-8.485-4.509-16.687-8.11-24.522
						C170.747,206.678,170.531,206.805,170.597,206.951L170.597,206.951z"/>
				</g>
			</g>
			<g>
				
					<linearGradient id="SVGID_00000062170392145813913360000007407361742915143312_" gradientUnits="userSpaceOnUse" x1="218.1578" y1="202.6552" x2="244.0969" y2="202.6552">
					<stop  offset="0" style="stop-color:#F48B78"/>
					<stop  offset="1" style="stop-color:#F6A9A3"/>
				</linearGradient>
				<path style="fill:url(#SVGID_00000062170392145813913360000007407361742915143312_);" d="M218.158,202.628l8.359-4.25
					c0,0,2.622-5.55,5.375-5.99c2.753-0.44,3.423,2.749,3.423,2.749c4.028,0.076,8.848,0.182,8.781,1.488
					c-0.034,0.628-4.748,1.76-7.316,2.426c0,0-0.689,6.116-3.272,6.987c-2.585,0.87-4.995-0.462-4.995-0.462l-7.341,7.387
					L218.158,202.628z"/>
				<g>
					<g>
						<path style="fill:#DD4F4B;" d="M232.446,195.442c-0.061,0-0.115-0.046-0.124-0.108c-0.009-0.069,0.039-0.131,0.107-0.141
							c0.017-0.002,1.653-0.218,3.461-0.17c0.069,0.002,0.124,0.059,0.122,0.128c-0.003,0.069-0.044,0.122-0.128,0.122
							c-1.801-0.043-3.406,0.166-3.422,0.168C232.457,195.442,232.451,195.442,232.446,195.442z"/>
					</g>
					<g>
						<path style="fill:#DD4F4B;" d="M233.025,199.965c-0.058,0-0.11-0.041-0.122-0.099c-0.015-0.068,0.028-0.134,0.097-0.148
							l3.755-0.789c0.069-0.01,0.134,0.029,0.147,0.097c0.015,0.068-0.028,0.134-0.097,0.148l-3.755,0.789
							C233.042,199.964,233.034,199.965,233.025,199.965z"/>
					</g>
					<g>
						<path style="fill:#DD4F4B;" d="M233.977,203.142c-0.056,0-0.106-0.038-0.121-0.094c-0.017-0.067,0.023-0.135,0.091-0.152
							c0.016-0.004,1.649-0.432,2.32-1.737c0.032-0.062,0.109-0.084,0.169-0.054c0.061,0.032,0.085,0.107,0.054,0.168
							c-0.724,1.408-2.411,1.847-2.482,1.865C233.998,203.141,233.987,203.142,233.977,203.142z"/>
					</g>
				</g>
				<path style="fill:#FFFFFF;" d="M157.379,203.285c9.924-0.954,25.05,17.037,62.668-1.988c0,0,6.036,3.497,3.016,10.337
					c0,0-18.645,18.937-51.074,16.539C144.667,226.152,140.048,204.951,157.379,203.285z"/>
				<g>
					<path style="fill:#BDD0FB;" d="M218.708,203.234c2.048,2.785,2.726,5.97,2.393,9.378c-0.016,0.161,0.234,0.159,0.25,0
						c0.337-3.459-0.352-6.682-2.427-9.504C218.83,202.98,218.613,203.104,218.708,203.234L218.708,203.234z"/>
				</g>
			</g>
			<path style="fill:none;stroke:#BDD0FB;stroke-width:0.25;stroke-miterlimit:10;" d="M223.063,211.634
				c0,0-18.645,18.937-51.074,16.539c-27.321-2.021-31.94-23.222-14.609-24.888"/>
			<path style="fill:none;stroke:#BDD0FB;stroke-width:0.25;stroke-miterlimit:10;" d="M140.985,257.433
				c0,0-8.13-47.486,16.021-57.352"/>
		</g>
		<g>
			
				<linearGradient id="SVGID_00000107584956829530885840000011265534507811981208_" gradientUnits="userSpaceOnUse" x1="285.5752" y1="321.0024" x2="305.4092" y2="321.0024">
				<stop  offset="0" style="stop-color:#F48B78"/>
				<stop  offset="1" style="stop-color:#F6A9A3"/>
			</linearGradient>
			<path style="fill:url(#SVGID_00000107584956829530885840000011265534507811981208_);" d="M297.603,308.858
				c-0.217,0.183-12.027,7.303-12.027,7.303s6.211,9.854,14.33,16.985l-2.645-10.761l8.148-4.276L297.603,308.858z"/>
			<path style="fill:#110777;" d="M298.288,326.569c-4.898-2.887-8.912-8.877-10.603-11.682c-1.252,0.756-2.109,1.273-2.109,1.273
				s6.211,9.854,14.33,16.985L298.288,326.569z"/>
			
				<linearGradient id="SVGID_00000067936278721981337060000003154278623374075802_" gradientUnits="userSpaceOnUse" x1="353.2432" y1="337.4717" x2="375.4678" y2="337.4717">
				<stop  offset="0" style="stop-color:#F48B78"/>
				<stop  offset="1" style="stop-color:#F6A9A3"/>
			</linearGradient>
			<path style="fill:url(#SVGID_00000067936278721981337060000003154278623374075802_);" d="M355.419,330.163
				c0,0.284-2.176,13.902-2.176,13.902s11.537,1.608,22.225,0l-9.93-4.918l1.984-8.984H355.419z"/>
			<path style="fill:#110777;" d="M369.397,341.06c-5.365,1.884-12.531,1.087-15.766,0.572c-0.23,1.444-0.389,2.434-0.389,2.434
				s11.537,1.608,22.225,0L369.397,341.06z"/>
			<g>
				<path style="fill:#6667FF;" d="M323.497,201.559c0,0-2.582,14.361,0,33.998c3.603,27.407,6.447,48.065-31.947,76.495
					c0,0,0.895,5.225,8.512,9.635c0,0,40.688-19.04,52.111-53.314c0,0,1.402,51.509,0,66.942c0,0,6.215,4.81,14.832,0
					c0,0,10.824-40.886,8.619-72.554c-2.205-31.669-9.525-55.109-9.525-55.109L323.497,201.559z"/>
				<g>
					<g>
						<path style="fill:#3652CD;" d="M352.173,268.497c-0.012,0-0.025-0.002-0.037-0.006c-0.066-0.021-0.102-0.091-0.082-0.156
							c0.074-0.234,7.266-23.674,0.77-45.827c-0.02-0.066,0.018-0.136,0.084-0.155c0.068-0.019,0.137,0.018,0.156,0.085
							c6.518,22.227-0.697,45.737-0.771,45.971C352.276,268.463,352.226,268.497,352.173,268.497z"/>
					</g>
					<g>
						<path style="fill:#3652CD;" d="M354.237,227.878c-0.014,0-0.029-0.002-0.043-0.008c-0.065-0.024-0.098-0.096-0.074-0.161
							l2.635-7.084c0.024-0.065,0.096-0.099,0.162-0.074c0.064,0.024,0.098,0.096,0.072,0.161l-2.635,7.084
							C354.337,227.847,354.288,227.878,354.237,227.878z"/>
					</g>
					<g>
						<path style="fill:#3652CD;" d="M329.925,230.215c-0.049,0-0.096-0.03-0.115-0.079c-0.025-0.064,0.006-0.137,0.07-0.162
							c5.502-2.162,10.904-13.057,10.957-13.167c0.031-0.061,0.107-0.088,0.168-0.057c0.063,0.031,0.088,0.105,0.057,0.168
							c-0.221,0.452-5.498,11.092-11.09,13.289C329.956,230.212,329.94,230.215,329.925,230.215z"/>
					</g>
				</g>
			</g>
			
				<linearGradient id="SVGID_00000042011537484861811180000007993280542966087600_" gradientUnits="userSpaceOnUse" x1="412.4737" y1="170.673" x2="430.6079" y2="170.673">
				<stop  offset="0" style="stop-color:#F48B78"/>
				<stop  offset="1" style="stop-color:#F6A9A3"/>
			</linearGradient>
			<path style="fill:url(#SVGID_00000042011537484861811180000007993280542966087600_);" d="M412.474,168.529l8.297-1.566
				c0,0,3.666-4.137,6.158-3.824c2.49,0.313,2.266,3.24,2.266,3.24c0.98,0.406,1.762,1.59,1.254,3.547
				c-0.832,3.198-3.111,5.318-5.564,5.42c-2.453,0.101-4.201-1.658-4.201-1.658l-8.209,4.535V168.529z"/>
			<path style="fill:#BDD0FB;" d="M347.933,150.276c10.647,2.024,20.957,25.402,66.004,16.995c0,0,5.234,5.486,0,11.705
				c0,0-25.219,14.089-58.332,1.717C327.708,170.27,329.339,146.741,347.933,150.276z"/>
			<g>
				<path style="fill:#1D0C8C;" d="M335.685,121.814c2.066,2.192,2.461,5.182,0.877,6.676c-1.582,1.493-4.543,0.925-6.613-1.266
					c-2.066-2.194-2.459-5.181-0.877-6.673C330.655,119.056,333.612,119.623,335.685,121.814z"/>
				<path style="fill:#BDD0FB;" d="M339.888,127.49c0.34,1.879-0.699,3.642-2.316,3.934c-1.621,0.294-3.209-0.995-3.547-2.875
					c-0.342-1.877,0.695-3.641,2.314-3.932C337.96,124.326,339.546,125.61,339.888,127.49z"/>
				<path style="fill:#1D0C8C;" d="M355.937,129.286c1.996,5.949-0.996,12.32-6.688,14.229c-5.691,1.91-11.922-1.362-13.918-7.313
					c-1.998-5.949,0.996-12.318,6.688-14.228C347.71,120.063,353.94,123.337,355.937,129.286z"/>
				
					<linearGradient id="SVGID_00000005973570753733994360000014700679859888359074_" gradientUnits="userSpaceOnUse" x1="42.2249" y1="195.1116" x2="53.5415" y2="195.1116" gradientTransform="matrix(0.954 -0.2998 0.2998 0.954 240.1088 -23.3307)">
					<stop  offset="0" style="stop-color:#F48B78"/>
					<stop  offset="1" style="stop-color:#F6A9A3"/>
				</linearGradient>
				<path style="fill:url(#SVGID_00000005973570753733994360000014700679859888359074_);" d="M343.364,139.968l-4.31,10.712
					c0,0,1.873,6.654,10.172,4.989l-0.848-13.064L343.364,139.968z"/>
				<path style="fill:#DD4F4B;" d="M355.587,133.68c0.164,0.895,0.465,4.111,0.785,4.335c0.32,0.221,1.818-0.542,1.789-0.967
					C358.132,136.626,355.46,132.972,355.587,133.68z"/>
				<g>
					
						<linearGradient id="SVGID_00000100351850216639739090000014537271623780433031_" gradientUnits="userSpaceOnUse" x1="49.4439" y1="185.4062" x2="63.5702" y2="185.4062" gradientTransform="matrix(0.954 -0.2998 0.2998 0.954 240.1088 -23.3307)">
						<stop  offset="0" style="stop-color:#F48B78"/>
						<stop  offset="1" style="stop-color:#F6A9A3"/>
					</linearGradient>
					<path style="fill:url(#SVGID_00000100351850216639739090000014537271623780433031_);" d="M343.452,135.965
						c-0.336,0.06-0.666,0.095-1,0.127l0.486,2.693c0.66,3.646,4.15,6.069,7.799,5.413c3.646-0.662,6.07-4.154,5.408-7.799l-1-5.531
						c-0.244-1.352-0.879-2.535-1.764-3.455C351.917,131.705,348.233,135.1,343.452,135.965z"/>
				</g>
				
					<linearGradient id="SVGID_00000031892460314934027990000008148851334107395765_" gradientUnits="userSpaceOnUse" x1="46.7586" y1="185.2142" x2="52.1294" y2="185.2142" gradientTransform="matrix(0.954 -0.2998 0.2998 0.954 240.1088 -23.3307)">
					<stop  offset="0" style="stop-color:#F48B78"/>
					<stop  offset="1" style="stop-color:#F6A9A3"/>
				</linearGradient>
				<path style="fill:url(#SVGID_00000031892460314934027990000008148851334107395765_);" d="M345.448,138.063
					c0.262,1.458-0.705,2.855-2.166,3.119c-1.459,0.265-2.855-0.705-3.119-2.165c-0.264-1.458,0.705-2.855,2.166-3.118
					C343.788,135.634,345.183,136.604,345.448,138.063z"/>
				<g>
					<path style="fill:#DD4F4B;" d="M343.329,140.202c-0.068,0.022-0.141,0.038-0.213,0.053c-0.457,0.08-0.922-0.02-1.303-0.285
						c-0.383-0.265-0.639-0.662-0.721-1.119c-0.17-0.935,0.447-1.847,1.404-2.024c0.945-0.169,1.85,0.458,2.021,1.403
						C344.675,139.093,344.163,139.939,343.329,140.202z M342.356,137.121c-0.711,0.223-1.148,0.948-1.016,1.683
						c0.072,0.392,0.291,0.733,0.615,0.96c0.328,0.227,0.723,0.311,1.115,0.24c0.818-0.149,1.344-0.93,1.201-1.73
						c-0.148-0.808-0.924-1.344-1.73-1.198C342.478,137.087,342.417,137.103,342.356,137.121z"/>
				</g>
				<path style="fill:#110777;" d="M354.099,134.258c0.113,0.63-0.063,1.188-0.395,1.248c-0.33,0.06-0.691-0.402-0.807-1.031
					c-0.113-0.627,0.064-1.187,0.395-1.245C353.624,133.169,353.985,133.631,354.099,134.258z"/>
				<g>
					<path style="fill:#110777;" d="M354.64,140.328c-1.277,0.58-2.334-0.316-2.373-1.636c-0.008-0.226,0.342-0.225,0.35,0
						c0.031,1.033,0.814,1.803,1.848,1.335C354.667,139.934,354.847,140.235,354.64,140.328L354.64,140.328z"/>
				</g>
				<path style="fill:#F48B78;" d="M352.923,136.338c0.121,0.667-0.32,1.305-0.988,1.426c-0.666,0.121-1.305-0.323-1.426-0.989
					c-0.119-0.668,0.322-1.307,0.99-1.426C352.165,135.228,352.804,135.671,352.923,136.338z"/>
			</g>
			<path style="fill:#BDD0FB;" d="M360.21,168.014c-3.27-8.28-6.686-13.507-10.168-16.364c-0.242-2.736-0.623-5.728-0.816-6.009
				c-0.35-0.506-7.182-1.518-8.16-1.582c-0.979-0.064-2.229,5.727-2.229,5.727c-24.15,9.865-16.902,56.086-16.902,56.086
				c19.811,8.568,47.477,1.769,47.477,1.769S367.638,186.825,360.21,168.014z"/>
			<g>
				<path style="fill:#FFFFFF;" d="M455.907,92.809c-12.186,7.041-23.924,5.365-34.502-3.894c-3.287-2.705-6.217-6.238-10.307-7.781
					c-4.631-1.699-10.027-2.035-14.604-0.649c4.613,1.255,9.01,4.403,12.031,8.3c2.65,3.48,3.256,8.029,4.605,12.067
					c4.051,13.459,16.451,22.176,30.518,22.675L455.907,92.809z"/>
				<g>
					<path style="fill:#1D0C8C;" d="M409.673,208.647c0.512,0.204,1.094-0.046,1.299-0.559L456.81,93.223
						c0.203-0.514-0.047-1.095-0.559-1.299c-0.514-0.205-1.094,0.046-1.301,0.558l-45.836,114.865
						C408.909,207.86,409.159,208.441,409.673,208.647z"/>
				</g>
			</g>
			<g>
				<g>
					
						<linearGradient id="SVGID_00000173873573348797944630000003227091750073118654_" gradientUnits="userSpaceOnUse" x1="1570.918" y1="401.614" x2="1584.2416" y2="417.3063" gradientTransform="matrix(-0.8276 -0.5614 -0.5614 0.8276 1875.0215 743.9828)">
						<stop  offset="6.377600e-04" style="stop-color:#E1E7FF"/>
						<stop  offset="0.9852" style="stop-color:#FFFFFF"/>
					</linearGradient>
					<path style="fill:url(#SVGID_00000173873573348797944630000003227091750073118654_);" d="M325.646,205.827
						c-0.168,0.373-0.002,0.811,0.371,0.979l20.6,9.243c0.373,0.168,0.81,0.001,0.978-0.372l13.063-29.109
						c0.166-0.373,0-0.811-0.373-0.978l-20.598-9.244c-0.375-0.167-0.811-0.001-0.978,0.372L325.646,205.827z"/>
					
						<linearGradient id="SVGID_00000047767283050138572470000008353167200769724043_" gradientUnits="userSpaceOnUse" x1="1565.5292" y1="396.0229" x2="1606.5375" y2="437.9196" gradientTransform="matrix(-0.8276 -0.5614 -0.5614 0.8276 1875.0215 743.9828)">
						<stop  offset="0" style="stop-color:#FFFFFF"/>
						<stop  offset="0.9961" style="stop-color:#8FB3FF"/>
					</linearGradient>
					<path style="fill:url(#SVGID_00000047767283050138572470000008353167200769724043_);" d="M327.741,201.405
						c-0.23,0.338-0.143,0.798,0.197,1.027l18.684,12.674c0.34,0.229,0.801,0.141,1.029-0.198l17.908-26.404
						c0.23-0.338,0.143-0.799-0.197-1.028l-18.684-12.673c-0.34-0.229-0.799-0.141-1.029,0.198L327.741,201.405z"/>
					<g>
						
							<linearGradient id="SVGID_00000060014070848707419100000012570626250000866747_" gradientUnits="userSpaceOnUse" x1="1570.5297" y1="386.3503" x2="1584.3004" y2="415.9648" gradientTransform="matrix(-0.8276 -0.5614 -0.5614 0.8276 1875.0215 743.9828)">
							<stop  offset="0" style="stop-color:#8FB3FF"/>
							<stop  offset="1" style="stop-color:#6986D9"/>
						</linearGradient>
						<path style="fill:url(#SVGID_00000060014070848707419100000012570626250000866747_);" d="M362.353,190.065l-16.275-11.038
							c-0.033-0.023-0.043-0.069-0.02-0.103c0.023-0.034,0.068-0.043,0.104-0.02l16.273,11.038c0.035,0.023,0.043,0.069,0.02,0.103
							C362.433,190.079,362.386,190.088,362.353,190.065z"/>
						
							<linearGradient id="SVGID_00000129196675854148379210000017482607556644886199_" gradientUnits="userSpaceOnUse" x1="1566.9736" y1="388.004" x2="1580.7406" y2="417.6102" gradientTransform="matrix(-0.8276 -0.5614 -0.5614 0.8276 1875.0215 743.9828)">
							<stop  offset="0" style="stop-color:#8FB3FF"/>
							<stop  offset="1" style="stop-color:#6986D9"/>
						</linearGradient>
						<path style="fill:url(#SVGID_00000129196675854148379210000017482607556644886199_);" d="M361.485,191.342l-10.301-6.988
							c-0.033-0.023-0.043-0.068-0.022-0.102c0.023-0.034,0.07-0.043,0.104-0.02l10.303,6.988c0.033,0.022,0.043,0.069,0.02,0.102
							C361.565,191.355,361.519,191.364,361.485,191.342z"/>
						
							<linearGradient id="SVGID_00000069374871522130825050000000143711073577194629_" gradientUnits="userSpaceOnUse" x1="1575.1243" y1="384.216" x2="1588.8907" y2="413.8214" gradientTransform="matrix(-0.8276 -0.5614 -0.5614 0.8276 1875.0215 743.9828)">
							<stop  offset="0" style="stop-color:#8FB3FF"/>
							<stop  offset="1" style="stop-color:#6986D9"/>
						</linearGradient>
						<path style="fill:url(#SVGID_00000069374871522130825050000000143711073577194629_);" d="M350.745,183.878
							c0.035,0.023,0.043,0.069,0.02,0.103c-0.021,0.034-0.068,0.042-0.102,0.02l-5.064-3.435c-0.033-0.023-0.043-0.069-0.02-0.103
							c0.023-0.034,0.068-0.043,0.102-0.019L350.745,183.878z"/>
						
							<linearGradient id="SVGID_00000042733630011040989500000016463272783442443180_" gradientUnits="userSpaceOnUse" x1="1568.407" y1="387.3374" x2="1582.1753" y2="416.9467" gradientTransform="matrix(-0.8276 -0.5614 -0.5614 0.8276 1875.0215 743.9828)">
							<stop  offset="0" style="stop-color:#8FB3FF"/>
							<stop  offset="1" style="stop-color:#6986D9"/>
						</linearGradient>
						<path style="fill:url(#SVGID_00000042733630011040989500000016463272783442443180_);" d="M360.62,192.619l-14.375-9.751
							c-0.035-0.024-0.043-0.069-0.021-0.104c0.023-0.034,0.07-0.042,0.103-0.02l14.375,9.75c0.035,0.023,0.043,0.069,0.022,0.103
							C360.7,192.632,360.653,192.641,360.62,192.619z"/>
						
							<linearGradient id="SVGID_00000127760643131720792420000006927629844308075141_" gradientUnits="userSpaceOnUse" x1="1566.5913" y1="388.1798" x2="1580.3625" y2="417.7953" gradientTransform="matrix(-0.8276 -0.5614 -0.5614 0.8276 1875.0215 743.9828)">
							<stop  offset="0" style="stop-color:#8FB3FF"/>
							<stop  offset="1" style="stop-color:#6986D9"/>
						</linearGradient>
						<path style="fill:url(#SVGID_00000127760643131720792420000006927629844308075141_);" d="M359.755,193.895l-11.91-8.078
							c-0.035-0.023-0.043-0.068-0.02-0.102c0.021-0.034,0.068-0.043,0.102-0.02l11.91,8.077c0.035,0.023,0.043,0.069,0.02,0.103
							C359.833,193.909,359.788,193.918,359.755,193.895z"/>
						
							<linearGradient id="SVGID_00000049911313286354744710000014237397520132517002_" gradientUnits="userSpaceOnUse" x1="1567.4091" y1="387.7995" x2="1581.1799" y2="417.4142" gradientTransform="matrix(-0.8276 -0.5614 -0.5614 0.8276 1875.0215 743.9828)">
							<stop  offset="0" style="stop-color:#8FB3FF"/>
							<stop  offset="1" style="stop-color:#6986D9"/>
						</linearGradient>
						<path style="fill:url(#SVGID_00000049911313286354744710000014237397520132517002_);" d="M358.888,195.172l-14.744-10
							c-0.033-0.023-0.043-0.069-0.02-0.103c0.023-0.034,0.068-0.043,0.104-0.02l14.744,10c0.033,0.023,0.043,0.069,0.02,0.103
							C358.968,195.186,358.921,195.195,358.888,195.172z"/>
						
							<linearGradient id="SVGID_00000134225061036434792610000008215000153225856927_" gradientUnits="userSpaceOnUse" x1="1565.6224" y1="388.6313" x2="1579.3917" y2="418.2427" gradientTransform="matrix(-0.8276 -0.5614 -0.5614 0.8276 1875.0215 743.9828)">
							<stop  offset="0" style="stop-color:#8FB3FF"/>
							<stop  offset="1" style="stop-color:#6986D9"/>
						</linearGradient>
						<path style="fill:url(#SVGID_00000134225061036434792610000008215000153225856927_);" d="M358.021,196.449l-12.332-8.366
							c-0.035-0.023-0.043-0.069-0.02-0.103c0.022-0.034,0.068-0.042,0.102-0.02l12.334,8.366c0.035,0.023,0.043,0.068,0.02,0.102
							C358.103,196.463,358.056,196.472,358.021,196.449z"/>
						
							<linearGradient id="SVGID_00000083776489958797874190000013807682480509423004_" gradientUnits="userSpaceOnUse" x1="1565.6816" y1="388.6036" x2="1579.4509" y2="418.2151" gradientTransform="matrix(-0.8276 -0.5614 -0.5614 0.8276 1875.0215 743.9828)">
							<stop  offset="0" style="stop-color:#8FB3FF"/>
							<stop  offset="1" style="stop-color:#6986D9"/>
						</linearGradient>
						<path style="fill:url(#SVGID_00000083776489958797874190000013807682480509423004_);" d="M357.157,197.726l-13.643-9.252
							c-0.033-0.023-0.043-0.069-0.02-0.102c0.023-0.035,0.068-0.043,0.104-0.02l13.641,9.253c0.033,0.022,0.043,0.069,0.02,0.102
							C357.235,197.74,357.19,197.749,357.157,197.726z"/>
						
							<linearGradient id="SVGID_00000070810069895392437220000015453598184999037358_" gradientUnits="userSpaceOnUse" x1="1563.8229" y1="389.465" x2="1577.5946" y2="419.0817" gradientTransform="matrix(-0.8276 -0.5614 -0.5614 0.8276 1875.0215 743.9828)">
							<stop  offset="0" style="stop-color:#8FB3FF"/>
							<stop  offset="1" style="stop-color:#6986D9"/>
						</linearGradient>
						<path style="fill:url(#SVGID_00000070810069895392437220000015453598184999037358_);" d="M356.29,199.003l-11.09-7.521
							c-0.033-0.023-0.041-0.07-0.02-0.104c0.023-0.034,0.068-0.042,0.103-0.02l11.09,7.521c0.033,0.022,0.043,0.069,0.02,0.104
							C356.37,199.017,356.325,199.026,356.29,199.003z"/>
						
							<linearGradient id="SVGID_00000072258754152954133480000016153375508015112087_" gradientUnits="userSpaceOnUse" x1="1571.4044" y1="385.9507" x2="1585.1681" y2="415.55" gradientTransform="matrix(-0.8276 -0.5614 -0.5614 0.8276 1875.0215 743.9828)">
							<stop  offset="0" style="stop-color:#8FB3FF"/>
							<stop  offset="1" style="stop-color:#6986D9"/>
						</linearGradient>
						<path style="fill:url(#SVGID_00000072258754152954133480000016153375508015112087_);" d="M344.507,190.833
							c0.035,0.023,0.043,0.068,0.022,0.102c-0.024,0.034-0.07,0.043-0.104,0.02l-2.613-1.773c-0.035-0.023-0.043-0.069-0.02-0.103
							c0.021-0.034,0.068-0.043,0.102-0.02L344.507,190.833z"/>
						
							<linearGradient id="SVGID_00000160184423614496329920000017873786471957951150_" gradientUnits="userSpaceOnUse" x1="1565.4512" y1="388.7085" x2="1579.2219" y2="418.3232" gradientTransform="matrix(-0.8276 -0.5614 -0.5614 0.8276 1875.0215 743.9828)">
							<stop  offset="0" style="stop-color:#8FB3FF"/>
							<stop  offset="1" style="stop-color:#6986D9"/>
						</linearGradient>
						<path style="fill:url(#SVGID_00000160184423614496329920000017873786471957951150_);" d="M355.423,200.28L339.87,189.73
							c-0.033-0.023-0.043-0.069-0.02-0.103c0.023-0.034,0.068-0.043,0.104-0.02l15.553,10.549c0.035,0.023,0.043,0.069,0.02,0.102
							C355.503,200.294,355.458,200.302,355.423,200.28z"/>
						
							<linearGradient id="SVGID_00000026127524291029917880000005861691195553283987_" gradientUnits="userSpaceOnUse" x1="1565.2198" y1="388.8177" x2="1578.989" y2="418.429" gradientTransform="matrix(-0.8276 -0.5614 -0.5614 0.8276 1875.0215 743.9828)">
							<stop  offset="0" style="stop-color:#8FB3FF"/>
							<stop  offset="1" style="stop-color:#6986D9"/>
						</linearGradient>
						<path style="fill:url(#SVGID_00000026127524291029917880000005861691195553283987_);" d="M338.366,190.396l16.275,11.038
							c0.033,0.023,0.041,0.068,0.02,0.103c-0.023,0.034-0.07,0.043-0.104,0.02l-16.273-11.038
							c-0.033-0.023-0.043-0.069-0.021-0.104C338.286,190.382,338.333,190.373,338.366,190.396z"/>
						
							<linearGradient id="SVGID_00000077287101076012109120000017426899508534775686_" gradientUnits="userSpaceOnUse" x1="1561.6641" y1="390.4734" x2="1575.4318" y2="420.0814" gradientTransform="matrix(-0.8276 -0.5614 -0.5614 0.8276 1875.0215 743.9828)">
							<stop  offset="0" style="stop-color:#8FB3FF"/>
							<stop  offset="1" style="stop-color:#6986D9"/>
						</linearGradient>
						<path style="fill:url(#SVGID_00000077287101076012109120000017426899508534775686_);" d="M353.692,202.833l-10.303-6.987
							c-0.033-0.023-0.043-0.069-0.02-0.103c0.023-0.034,0.068-0.043,0.104-0.02l10.301,6.988c0.033,0.022,0.043,0.068,0.021,0.103
							C353.772,202.847,353.726,202.856,353.692,202.833z"/>
						
							<linearGradient id="SVGID_00000036968323887181850730000012570282137030244030_" gradientUnits="userSpaceOnUse" x1="1569.8141" y1="386.6827" x2="1583.5829" y2="416.293" gradientTransform="matrix(-0.8276 -0.5614 -0.5614 0.8276 1875.0215 743.9828)">
							<stop  offset="0" style="stop-color:#8FB3FF"/>
							<stop  offset="1" style="stop-color:#6986D9"/>
						</linearGradient>
						<path style="fill:url(#SVGID_00000036968323887181850730000012570282137030244030_);" d="M337.888,191.935l5.064,3.435
							c0.033,0.023,0.041,0.069,0.02,0.103c-0.023,0.034-0.07,0.043-0.103,0.02l-5.064-3.435c-0.033-0.023-0.041-0.069-0.02-0.103
							C337.808,191.921,337.853,191.912,337.888,191.935z"/>
						
							<linearGradient id="SVGID_00000181088712168382134580000005081885883311109778_" gradientUnits="userSpaceOnUse" x1="1563.0964" y1="389.8044" x2="1576.8661" y2="419.4165" gradientTransform="matrix(-0.8276 -0.5614 -0.5614 0.8276 1875.0215 743.9828)">
							<stop  offset="0" style="stop-color:#8FB3FF"/>
							<stop  offset="1" style="stop-color:#6986D9"/>
						</linearGradient>
						<path style="fill:url(#SVGID_00000181088712168382134580000005081885883311109778_);" d="M352.825,204.11l-14.375-9.75
							c-0.035-0.023-0.043-0.07-0.02-0.103c0.023-0.034,0.068-0.042,0.102-0.02l14.377,9.751c0.033,0.023,0.043,0.068,0.02,0.103
							C352.905,204.124,352.86,204.133,352.825,204.11z"/>
						
							<linearGradient id="SVGID_00000183238251654956927050000013671585481396694933_" gradientUnits="userSpaceOnUse" x1="1561.2809" y1="390.6465" x2="1575.052" y2="420.2617" gradientTransform="matrix(-0.8276 -0.5614 -0.5614 0.8276 1875.0215 743.9828)">
							<stop  offset="0" style="stop-color:#8FB3FF"/>
							<stop  offset="1" style="stop-color:#6986D9"/>
						</linearGradient>
						<path style="fill:url(#SVGID_00000183238251654956927050000013671585481396694933_);" d="M351.96,205.387l-11.91-8.078
							c-0.035-0.023-0.043-0.069-0.02-0.102c0.023-0.034,0.068-0.043,0.103-0.02l11.908,8.078c0.035,0.023,0.043,0.069,0.02,0.102
							C352.04,205.401,351.993,205.41,351.96,205.387z"/>
						
							<linearGradient id="SVGID_00000160869997255877927530000018067088749501934730_" gradientUnits="userSpaceOnUse" x1="1562.0999" y1="390.2686" x2="1575.8689" y2="419.8794" gradientTransform="matrix(-0.8276 -0.5614 -0.5614 0.8276 1875.0215 743.9828)">
							<stop  offset="0" style="stop-color:#8FB3FF"/>
							<stop  offset="1" style="stop-color:#6986D9"/>
						</linearGradient>
						<path style="fill:url(#SVGID_00000160869997255877927530000018067088749501934730_);" d="M351.095,206.664l-14.744-10
							c-0.035-0.023-0.043-0.069-0.02-0.103c0.022-0.034,0.068-0.042,0.102-0.019l14.744,10c0.033,0.023,0.043,0.069,0.02,0.103
							C351.173,206.678,351.128,206.687,351.095,206.664z"/>
						
							<linearGradient id="SVGID_00000047019852125179911450000014237904223311446463_" gradientUnits="userSpaceOnUse" x1="1560.3124" y1="391.098" x2="1574.0822" y2="420.7105" gradientTransform="matrix(-0.8276 -0.5614 -0.5614 0.8276 1875.0215 743.9828)">
							<stop  offset="0" style="stop-color:#8FB3FF"/>
							<stop  offset="1" style="stop-color:#6986D9"/>
						</linearGradient>
						<path style="fill:url(#SVGID_00000047019852125179911450000014237904223311446463_);" d="M350.228,207.941l-12.334-8.366
							c-0.033-0.022-0.043-0.069-0.02-0.103c0.023-0.034,0.068-0.043,0.102-0.02l12.336,8.366c0.033,0.022,0.041,0.069,0.02,0.102
							C350.308,207.955,350.261,207.963,350.228,207.941z"/>
						
							<linearGradient id="SVGID_00000030468827003769978840000011166293078708583297_" gradientUnits="userSpaceOnUse" x1="1560.3717" y1="391.0709" x2="1574.141" y2="420.6823" gradientTransform="matrix(-0.8276 -0.5614 -0.5614 0.8276 1875.0215 743.9828)">
							<stop  offset="0" style="stop-color:#8FB3FF"/>
							<stop  offset="1" style="stop-color:#6986D9"/>
						</linearGradient>
						<path style="fill:url(#SVGID_00000030468827003769978840000011166293078708583297_);" d="M349.362,209.217l-13.641-9.252
							c-0.035-0.023-0.043-0.068-0.021-0.103c0.023-0.034,0.07-0.042,0.104-0.02l13.641,9.253c0.035,0.023,0.043,0.069,0.02,0.103
							C349.442,209.232,349.396,209.24,349.362,209.217z"/>
						
							<linearGradient id="SVGID_00000047765417087522981080000013114104102784887203_" gradientUnits="userSpaceOnUse" x1="1558.5133" y1="391.9326" x2="1572.2838" y2="421.5467" gradientTransform="matrix(-0.8276 -0.5614 -0.5614 0.8276 1875.0215 743.9828)">
							<stop  offset="0" style="stop-color:#8FB3FF"/>
							<stop  offset="1" style="stop-color:#6986D9"/>
						</linearGradient>
						<path style="fill:url(#SVGID_00000047765417087522981080000013114104102784887203_);" d="M348.497,210.494l-11.09-7.521
							c-0.035-0.023-0.043-0.069-0.021-0.103c0.023-0.035,0.07-0.043,0.103-0.02l11.09,7.521c0.033,0.023,0.043,0.069,0.02,0.103
							C348.577,210.508,348.53,210.517,348.497,210.494z"/>
						
							<linearGradient id="SVGID_00000129189618278726388970000017186051957473715900_" gradientUnits="userSpaceOnUse" x1="1566.0869" y1="388.4016" x2="1579.8611" y2="418.0237" gradientTransform="matrix(-0.8276 -0.5614 -0.5614 0.8276 1875.0215 743.9828)">
							<stop  offset="0" style="stop-color:#8FB3FF"/>
							<stop  offset="1" style="stop-color:#6986D9"/>
						</linearGradient>
						<path style="fill:url(#SVGID_00000129189618278726388970000017186051957473715900_);" d="M336.714,202.324
							c0.035,0.023,0.043,0.069,0.02,0.103c-0.023,0.034-0.068,0.042-0.104,0.02l-2.613-1.773c-0.033-0.023-0.043-0.069-0.02-0.103
							c0.023-0.034,0.068-0.043,0.102-0.02L336.714,202.324z"/>
						
							<linearGradient id="SVGID_00000018924381650230996290000012310527485338057109_" gradientUnits="userSpaceOnUse" x1="1560.1411" y1="391.1768" x2="1573.911" y2="420.7895" gradientTransform="matrix(-0.8276 -0.5614 -0.5614 0.8276 1875.0215 743.9828)">
							<stop  offset="0" style="stop-color:#8FB3FF"/>
							<stop  offset="1" style="stop-color:#6986D9"/>
						</linearGradient>
						<path style="fill:url(#SVGID_00000018924381650230996290000012310527485338057109_);" d="M332.159,201.099l15.553,10.549
							c0.035,0.023,0.043,0.069,0.021,0.103c-0.023,0.034-0.07,0.043-0.104,0.02l-15.553-10.549
							c-0.035-0.023-0.043-0.069-0.021-0.102C332.079,201.085,332.126,201.076,332.159,201.099z"/>
					</g>
					
						<linearGradient id="SVGID_00000136393831287154369390000012460028924550751636_" gradientUnits="userSpaceOnUse" x1="1565.7378" y1="393.6089" x2="1570.9192" y2="397.754" gradientTransform="matrix(-0.8276 -0.5614 -0.5614 0.8276 1875.0215 743.9828)">
						<stop  offset="0" style="stop-color:#8FB3FF"/>
						<stop  offset="1" style="stop-color:#6986D9"/>
					</linearGradient>
					<path style="fill:url(#SVGID_00000136393831287154369390000012460028924550751636_);" d="M348.589,190.814
						c-0.318,0.34-0.299,0.875,0.041,1.193l7.502,7.003c0.34,0.318,0.875,0.3,1.193-0.042l7.549-8.087
						c0.318-0.341,0.301-0.875-0.041-1.193l-7.5-7.003c-0.342-0.318-0.877-0.3-1.195,0.041L348.589,190.814z"/>
					<g>
						
							<linearGradient id="SVGID_00000118375573393494360440000005031158110720572035_" gradientUnits="userSpaceOnUse" x1="1565.4619" y1="386.715" x2="1566.9423" y2="392.7846" gradientTransform="matrix(-0.8276 -0.5614 -0.5614 0.8276 1875.0215 743.9828)">
							<stop  offset="0.0026" style="stop-color:#5758FF"/>
							<stop  offset="0.9968" style="stop-color:#1B1F37"/>
						</linearGradient>
						<path style="fill:url(#SVGID_00000118375573393494360440000005031158110720572035_);" d="M362.464,184.174
							c0.531,0.361,0.877,1.061,0.594,1.738l-0.455-0.309c0.102-0.388-0.115-0.771-0.438-0.99c-0.395-0.267-0.932-0.164-1.199,0.23
							l-1.863,2.747c-0.242,0.356-0.295,0.844,0.127,1.13c0.395,0.267,0.934,0.164,1.199-0.229l0.832-1.226
							c0.082-0.121,0.246-0.152,0.367-0.07c0.123,0.082,0.154,0.247,0.072,0.369l-0.832,1.225c-0.432,0.636-1.301,0.803-1.936,0.372
							c-0.609-0.414-0.725-1.2-0.27-1.868l1.863-2.748C360.956,183.91,361.825,183.743,362.464,184.174z"/>
					</g>
				</g>
				<path style="fill:#110777;" d="M363.89,196.13l-26.736-4.052l0.486-3.219c0.084-0.542-0.289-1.047-0.832-1.129l-13.936-2.112
					c-0.543-0.082-1.049,0.29-1.131,0.832l-4.074,26.891c-0.082,0.542,0.291,1.048,0.834,1.13l4.432,0.672l9.504,1.44l27.717,4.2
					c0.543,0.082,1.049-0.29,1.131-0.833l3.438-22.691C364.804,196.717,364.431,196.212,363.89,196.13z"/>
				
					<linearGradient id="SVGID_00000098927128099524280700000005738854000525170082_" gradientUnits="userSpaceOnUse" x1="323.3174" y1="203.2007" x2="346.3675" y2="203.2007">
					<stop  offset="0" style="stop-color:#F48B78"/>
					<stop  offset="1" style="stop-color:#F6A9A3"/>
				</linearGradient>
				<path style="fill:url(#SVGID_00000098927128099524280700000005738854000525170082_);" d="M333.327,198.276l-9.699-5.076
					l-0.311,12.988l7.428-1.112c0.945,0.843,9.762,8.665,10.395,8.095c0.998-0.9-1.199-3.189-2.814-5.629
					c1.92,0.661,7.416,2.493,7.686,1.797c0.584-1.516-4.164-3.785-7.432-5.85c2.517,0.148,7.713,0.37,7.785-0.309
					c0.15-1.414-4.955-3.072-9.145-4.025c0,0,2.439-2.859,2.022-3.867C338.604,193.751,333.327,198.276,333.327,198.276
					L333.327,198.276"/>
				<path style="fill:#BDD0FB;" d="M335.899,151.499c-17.437-0.009-38.758,21.939-31.67,40.687
					c6.215,16.436,24.486,13.946,24.486,13.946l2.305-9.624c0,0-12.76-7.529-10.154-14.343c2.605-6.814,9.494-10.393,16.814-14.832
					C344.292,163.325,347.933,151.505,335.899,151.499z"/>
			</g>
			<g>
				
					<linearGradient id="SVGID_00000142151232755997921850000012080946178442509222_" gradientUnits="userSpaceOnUse" x1="421.6846" y1="170.3589" x2="430.466" y2="170.3589">
					<stop  offset="0" style="stop-color:#F48B78"/>
					<stop  offset="1" style="stop-color:#F6A9A3"/>
				</linearGradient>
				<path style="fill:url(#SVGID_00000142151232755997921850000012080946178442509222_);" d="M430.317,169.998
					c0.666-2.51-1.123-3.619-1.123-3.619c-1.225-0.422-3.924-1.47-5.236-0.721c-0.787,0.448-1.48,1.479,0.859,2.712
					c-0.002-0.001-0.006-0.001-0.01-0.002c-0.719-0.189-3.123-0.539-3.123,1.227c0,0.893,1.012,1.499,2.965,2.357
					c-0.459-0.196-2.213-0.881-2.645-0.11c-0.465,0.829,0.611,2.495,3.182,3.481c0,0,2.184,0.091,4.397-3.627
					c0.332-0.559,0.545-1.064,0.685-1.528c0.037,0.008,0.068,0.017,0.105,0.026L430.317,169.998z"/>
				<path style="fill:#DD4F4B;" d="M430.403,170.071c-5.924-1.367-6.965-2.642-7.059-3.28c-0.078-0.533,0.447-0.894,0.676-1.025
					c1.166-0.663,3.551,0.175,4.832,0.626l0.301,0.105c0.066,0.024,0.137-0.012,0.158-0.077c0.023-0.065-0.012-0.137-0.076-0.159
					l-0.299-0.105c-1.32-0.463-3.777-1.329-5.039-0.607c-0.58,0.33-0.871,0.795-0.801,1.278c0.066,0.446,0.434,0.883,1.074,1.31
					c-0.684-0.081-1.588-0.078-2.137,0.365c-0.314,0.254-0.475,0.622-0.475,1.092c0,0.679,0.596,1.222,1.689,1.812
					c-0.563-0.086-1.117-0.046-1.353,0.374c-0.152,0.274-0.16,0.622-0.023,1.004c0.285,0.786,1.293,1.896,3.27,2.654
					c0.014,0.006,0.029,0.008,0.045,0.008c0.049,0,0.098-0.03,0.117-0.08c0.023-0.064-0.008-0.137-0.072-0.162
					c-1.898-0.728-2.857-1.771-3.123-2.506c-0.113-0.313-0.111-0.588,0.006-0.797c0.361-0.644,1.998-0.064,2.598,0.213
					c0.002,0.001,0.002,0,0.004,0c0.59,0.262,1.244,0.539,1.986,0.851c0.541,0.228,1.119,0.471,1.732,0.734
					c0.016,0.007,0.033,0.01,0.049,0.01c0.049,0,0.096-0.028,0.115-0.076c0.027-0.063-0.002-0.137-0.065-0.164
					c-0.615-0.264-1.193-0.507-1.734-0.735c-3.111-1.309-4.99-2.099-4.99-3.142c0-0.396,0.125-0.69,0.381-0.898
					c0.695-0.561,2.158-0.301,2.592-0.207c0,0,0-0.001,0.002-0.001c1.211,0.636,3.053,1.247,5.563,1.825
					c0.01,0.002,0.02,0.003,0.027,0.003c0.057,0,0.109-0.039,0.123-0.097C430.513,170.154,430.47,170.087,430.403,170.071z"/>
			</g>
			<path style="fill:none;stroke:#5758FF;stroke-width:0.25;stroke-miterlimit:10;" d="M369.411,207.642
				c0,0-1.773-20.817-9.201-39.627c-3.27-8.28-6.686-13.507-10.168-16.364"/>
			<path style="fill:none;stroke:#5758FF;stroke-width:0.25;stroke-miterlimit:10;" d="M320.866,182.165
				c2.605-6.814,9.494-10.393,16.814-14.832c6.611-4.009,10.252-15.828-1.781-15.834"/>
		</g>
	</g>
</g>
</svg>
